<svg width="94" height="157" viewBox="0 0 94 157" fill="none" xmlns="http://www.w3.org/2000/svg">
<path d="M43.6227 10.0973C46.4956 12.7208 47.5698 16.9035 47.9445 20.022L33.605 6.58276C36.7527 6.75601 40.8747 7.52328 43.6227 10.0973Z" fill="#8BC53F"/>
<path d="M46.1209 21.705C42.9482 21.5565 38.8013 20.7892 36.0283 18.2152C33.1554 15.5669 32.1062 11.3842 31.7314 8.24097L46.1209 21.705Z" fill="#1C6F28"/>
<path d="M37.3523 62.2703C37.6006 62.5137 37.7516 62.8392 37.777 63.186C37.7877 63.3585 37.762 63.5313 37.7018 63.6933C37.6416 63.8553 37.548 64.0029 37.4273 64.1265C37.1926 64.377 36.8706 64.5276 36.5279 64.5473C36.1795 64.5531 35.8414 64.4296 35.5786 64.2008C35.4467 64.0872 35.3405 63.9468 35.2673 63.7888C35.194 63.6309 35.1554 63.4591 35.1539 63.285C35.1482 62.9437 35.2753 62.6136 35.5083 62.3643C35.7414 62.1149 36.0622 61.9658 36.403 61.9485H36.453C36.7828 61.9372 37.1045 62.0524 37.3523 62.2703Z" fill="white"/>
<path d="M37.777 63.1862C37.7516 62.8395 37.6006 62.5139 37.3524 62.2705C37.1045 62.0526 36.7828 61.9374 36.453 61.9487H36.403C36.0622 61.9661 35.7414 62.1151 35.5083 62.3645C35.2753 62.6138 35.1482 62.9439 35.1539 63.2852C35.1554 63.4593 35.194 63.6311 35.2673 63.789C35.3405 63.947 35.4467 64.0874 35.5786 64.201C35.8413 64.4298 36.1795 64.5533 36.5279 64.5475C36.8706 64.5278 37.1926 64.3772 37.4273 64.1268C37.548 64.0031 37.6416 63.8555 37.7018 63.6935C37.7621 63.5315 37.7877 63.3587 37.777 63.1862ZM33.8799 66.0325C33.1435 65.3524 32.7039 64.4102 32.6558 63.409C32.6284 62.9111 32.7029 62.4128 32.8747 61.9447C33.0466 61.4766 33.3121 61.0484 33.6551 60.6864C34.0745 60.2226 34.6021 59.8696 35.1908 59.6589C35.7796 59.4482 36.4113 59.3863 37.0298 59.4786C37.6483 59.571 38.2344 59.8148 38.7359 60.1883C39.2374 60.5619 39.6389 61.0535 39.9045 61.6197C40.1701 62.1858 40.2917 62.8088 40.2584 63.4333C40.2252 64.0577 40.0381 64.6643 39.7138 65.199C39.3895 65.7337 38.9381 66.18 38.3997 66.4981C37.8614 66.8162 37.2527 66.9963 36.6279 67.0224H36.453C35.5025 67.0217 34.5858 66.6691 33.8799 66.0325Z" fill="#3F2000"/>
<path d="M24.8615 64.597C24.1838 64.6421 23.5041 64.5497 22.863 64.3254C22.222 64.1011 21.6329 63.7495 21.1312 63.2917C20.6295 62.834 20.2256 62.2795 19.9436 61.6617C19.6616 61.0438 19.5075 60.3754 19.4904 59.6965C19.4398 58.33 19.932 56.9991 20.8594 55.9943C21.7868 54.9895 23.0741 54.3925 24.4402 54.3337C25.8063 54.2748 27.1402 54.7589 28.1506 55.6802C29.161 56.6015 29.7657 57.8852 29.8328 59.251C29.8781 60.6179 29.3808 61.9473 28.4494 62.9489C27.518 63.9505 26.2282 64.543 24.8615 64.597Z" fill="white"/>
<path d="M24.4368 54.3504C23.7607 54.3756 23.0962 54.5341 22.4814 54.8166C21.8666 55.0991 21.3136 55.5001 20.854 55.9968C20.3945 56.4934 20.0376 57.0759 19.8036 57.7107C19.5696 58.3456 19.4631 59.0204 19.4904 59.6964C19.5624 61.0586 20.1691 62.3374 21.1788 63.2547C22.1885 64.1719 23.5194 64.6536 24.8822 64.5949C26.2451 64.5362 27.5296 63.9418 28.4567 62.9411C29.3837 61.9404 29.8783 60.6143 29.8328 59.2509C29.8014 58.5745 29.6367 57.9109 29.3483 57.2982C29.0599 56.6856 28.6534 56.1358 28.1521 55.6806C27.6508 55.2253 27.0646 54.8735 26.427 54.6452C25.7895 54.417 25.1131 54.3168 24.4368 54.3504ZM24.6367 67.072C22.6708 67.0764 20.7789 66.3224 19.355 64.967C17.931 63.6116 17.0847 61.7591 16.9922 59.7954V59.4737C17.0035 57.9915 17.4443 56.5443 18.2613 55.3075C19.0783 54.0707 20.2364 53.0974 21.5954 52.5054C22.9543 51.9134 24.4558 51.7282 25.9178 51.9722C27.3799 52.2162 28.7398 52.879 29.8328 53.8802C30.58 54.5477 31.1859 55.358 31.615 56.2634C32.044 57.1688 32.2875 58.151 32.331 59.1519C32.4048 61.1708 31.6774 63.1369 30.3075 64.6217C28.922 66.1023 27.0121 66.9817 24.9864 67.072H24.6367Z" fill="#3F2000"/>
<path d="M76.1422 53.9263C75.4819 52.8528 74.6632 51.8852 73.7139 51.0563C71.7712 49.3497 69.3707 48.2503 66.8095 47.8943C64.185 47.5669 61.5203 47.8581 59.0285 48.7448C56.9983 49.4343 55.1307 50.5319 53.5405 51.9701C52.3188 53.0987 51.2595 54.3911 50.3928 55.8107C50.344 55.8537 50.3019 55.9038 50.2678 55.9592C50.193 56.0581 50.1179 56.1325 50.0431 56.2314C49.8427 56.4628 49.6164 56.6705 49.3685 56.8502C49.325 56.9058 49.2747 56.9557 49.2186 56.9987C49.1936 57.0235 49.1688 57.0234 49.1188 57.0482C48.9093 57.162 48.6923 57.2612 48.4692 57.3452C48.3693 57.3699 48.2943 57.4194 48.1945 57.4442C47.8544 57.5472 47.5004 57.5972 47.1451 57.5926C46.8414 57.5879 46.5395 57.5464 46.2458 57.4689C46.146 57.4441 46.0211 57.3699 45.9211 57.3452C45.7402 57.286 45.5647 57.2115 45.3965 57.1224C45.2745 57.0571 45.1576 56.9826 45.0467 56.8997C44.9219 56.8006 44.772 56.7017 44.6221 56.578C44.4319 56.354 44.2403 56.1312 44.0474 55.9096C44.0224 55.8849 44.0224 55.8601 43.9726 55.8107C41.8992 52.4172 38.7772 49.7912 35.0788 48.3299C31.3803 46.8685 27.3065 46.6513 23.4736 47.7111C19.6407 48.7709 16.2572 51.05 13.8348 54.2038C11.4124 57.3575 10.0829 61.2144 10.0474 65.1909C10.0474 72.0962 12.5955 79.15 14.9688 85.2138C15.4934 86.5007 16.018 88.0104 16.6176 89.644C18.2866 94.5409 20.3106 99.3096 22.6733 103.912C26.0967 110.187 30.2165 114.35 35.7785 113.379C37.5666 113.008 39.2973 112.401 40.9247 111.573C41.0497 111.498 41.3245 111.35 41.6493 111.152C40.8349 110.176 40.0862 109.148 39.4079 108.073C38.4191 106.555 37.6039 104.931 36.9777 103.232C36.8194 102.769 36.7547 102.279 36.7874 101.791C36.82 101.303 36.9494 100.827 37.1679 100.389C37.3864 99.9515 37.6897 99.5617 38.0602 99.2424C38.4307 98.9231 38.861 98.6807 39.326 98.5291C40.2641 98.2146 41.2884 98.2824 42.1768 98.7179C43.0653 99.1534 43.7464 99.9215 44.0724 100.856C44.4821 102.687 45.2574 104.416 46.3517 105.94C47.4461 107.464 48.837 108.752 50.441 109.725C51.5002 110.386 52.6285 110.929 53.8056 111.345C54.573 111.617 57.4626 110.788 58.2157 110.545C61.8876 109.361 64.5451 106.2 66.5185 103.022C69.0268 98.665 71.2101 94.1287 73.0507 89.4503C75.1635 84.7194 76.7783 79.7815 77.8689 74.7164C78.4292 71.966 78.7433 69.1711 78.8076 66.3649C78.8906 62.1738 78.3778 57.5826 76.1422 53.9263ZM16.9923 59.7954V59.4736C17.0035 57.9914 17.4443 56.5442 18.2613 55.3074C19.0783 54.0706 20.2364 53.0973 21.5953 52.5053C22.9543 51.9134 24.4557 51.7281 25.9178 51.9721C27.3798 52.2161 28.7397 52.8789 29.8328 53.8801C30.5799 54.5476 31.1859 55.3579 31.615 56.2633C32.044 57.1687 32.2874 58.1509 32.3309 59.1519C32.4048 61.1708 31.6774 63.1369 30.3074 64.6217C28.9219 66.1021 27.012 66.9816 24.9863 67.0719H24.6367C22.6708 67.0763 20.7789 66.3224 19.355 64.9669C17.9311 63.6115 17.0848 61.7591 16.9923 59.7954ZM39.2759 65.7848C38.9394 66.1573 38.5317 66.4586 38.077 66.6712C37.6222 66.8837 37.1295 67.0031 36.6279 67.0224H36.453C35.4754 67.0286 34.5335 66.6556 33.8253 65.9817C33.1172 65.3077 32.6979 64.3854 32.6557 63.4088C32.6284 62.9109 32.7029 62.4127 32.8747 61.9445C33.0465 61.4764 33.3121 61.0483 33.655 60.6863C33.9888 60.3134 34.393 60.0102 34.8444 59.7941C35.2957 59.578 35.7854 59.4534 36.2852 59.4273C36.785 59.4013 37.2849 59.4744 37.7564 59.6424C38.2278 59.8103 38.6613 60.0699 39.032 60.4062C39.4026 60.7424 39.7031 61.1486 39.9162 61.6015C40.1292 62.0543 40.2505 62.5448 40.2732 63.0448C40.2959 63.5447 40.2194 64.0442 40.0483 64.5144C39.8771 64.9847 39.6146 65.4164 39.2759 65.7848Z" fill="#EC1A38"/>
<path d="M28.8608 47.1975C28.8608 47.1975 14.1388 44.9974 10.0473 61.2502C10.0473 61.2502 7.73404 70.5312 15.5754 86.784C15.5754 86.784 1.99663 52.6351 28.8608 47.1975Z" fill="white"/>
<path d="M56.6239 112.559C55.9348 112.357 55.257 112.117 54.5935 111.842L60.2949 109.608C50.2826 113.063 43.2504 94.8972 43.2504 94.8972C43.2409 96.748 43.4467 98.5936 43.8638 100.397C43.679 100.043 43.4374 99.7214 43.1485 99.4456C44.8158 104.126 48.5109 107.802 52.2164 111.473C53.5772 112.184 55.0889 112.556 56.6239 112.559Z" fill="#EC1A38"/>
<path d="M86.0168 49.0043C83.5663 46.0836 80.5092 43.7315 77.0579 42.1116C73.6066 40.4917 69.8439 39.6428 66.0314 39.6239C60.3192 39.6169 54.7661 41.5059 50.2431 44.9947C50.4233 40.2387 51.7763 35.601 54.1822 31.4945C56.5881 27.388 59.972 23.94 64.0327 21.4575C64.4473 21.1992 64.8066 20.8614 65.0902 20.4637C65.3738 20.066 65.576 19.6161 65.6851 19.14C65.7942 18.6639 65.8081 18.1709 65.7261 17.6894C65.644 17.2079 65.4676 16.7473 65.207 16.3342C64.6703 15.5003 63.8272 14.9109 62.8597 14.6933C61.8921 14.4756 60.8778 14.6472 60.0357 15.1709C57.7847 16.567 55.6908 18.2017 53.7903 20.0467C53.3656 15.9135 51.9666 9.89918 47.5949 5.86491C40.4751 -0.669147 28.7586 0.96441 28.259 1.01396C27.6067 1.11306 27.0063 1.42763 26.5536 1.90758C26.1008 2.38752 25.8217 3.00524 25.7608 3.66221C25.7358 4.15721 24.9864 15.8887 32.0812 22.398C36.7778 26.7293 43.4978 27.4965 47.6698 27.4965H47.8696C45.855 30.86 44.4036 34.5301 43.5727 38.3617C43.1691 40.2216 42.8936 42.107 42.7484 44.0046C38.8809 41.4085 34.3829 39.9073 29.7314 39.6603C25.0799 39.4132 20.4483 40.4296 16.3276 42.6015C12.2069 44.7735 8.75077 48.02 6.32566 51.997C3.90055 55.9739 2.59685 60.5331 2.5528 65.1909C2.5528 73.3832 5.35079 81.2289 7.99879 87.9114C8.47346 89.1489 8.99813 90.5844 9.57271 92.1437C13.5198 103.108 19.99 120.977 34.0048 120.977C35.0443 120.973 36.0812 120.874 37.1026 120.68C39.5693 120.208 41.9575 119.391 44.1973 118.255C45.2756 117.732 46.3262 117.154 47.345 116.522C50.7077 118.862 54.629 120.271 58.7116 120.606C59.477 120.656 60.2447 120.656 61.0101 120.606C62.7704 120.541 64.5084 120.189 66.1563 119.567C74.2503 116.498 77.7727 108.528 80.6206 102.093L81.3701 100.385C83.8941 94.8745 86.108 89.2269 88.0016 83.469C88.2234 82.7583 88.1665 81.9897 87.8425 81.3194C87.5184 80.6491 86.9514 80.1273 86.2566 79.8597C85.7882 79.6726 85.3198 79.4766 84.8514 79.2718C84.4837 79.1058 84.0853 79.0187 83.6818 79.016C83.2784 79.0133 82.8789 79.0951 82.509 79.2561C82.1391 79.4172 81.807 79.6539 81.5341 79.9511C81.2612 80.2483 81.0536 80.5993 80.9245 80.9816C79.1099 86.5586 76.9817 92.0288 74.5501 97.3659L73.7507 99.1232C71.2525 104.791 68.6294 110.681 63.4582 112.637C62.2381 113.094 60.9372 113.296 59.6359 113.231C58.6154 113.089 57.608 112.864 56.6239 112.559C55.089 112.556 53.5773 112.184 52.2165 111.473C48.511 107.802 44.8159 104.126 43.1486 99.4455C42.6581 98.9548 42.0413 98.6095 41.3666 98.4477C40.6919 98.286 39.9856 98.3141 39.326 98.5291C38.8609 98.6806 38.4306 98.9231 38.0602 99.2424C37.6897 99.5617 37.3863 99.9514 37.1678 100.389C36.9493 100.827 36.82 101.303 36.7874 101.791C36.7547 102.279 36.8194 102.769 36.9777 103.232C38.0644 106.122 39.6451 108.802 41.6493 111.152C41.3245 111.35 41.0497 111.498 40.9247 111.572C39.2972 112.401 37.5666 113.008 35.7785 113.379C26.5602 114.988 21.2891 102.539 16.6175 89.6438C16.018 88.0103 15.4933 86.5006 14.9688 85.2137C12.3031 78.4027 9.41671 70.3426 10.1685 62.647C10.5677 59.1802 11.9977 55.9128 14.2736 53.2673C16.5495 50.6218 19.5667 48.72 22.9351 47.8076C26.8328 46.6212 31.0141 46.7635 34.8221 48.2121C38.6301 49.6608 41.8489 52.3336 43.9726 55.8106C43.9976 55.8106 43.9976 55.8352 44.0224 55.8352C44.0208 55.8487 44.0221 55.8624 44.0265 55.8752C44.0308 55.8881 44.038 55.8998 44.0474 55.9095C44.2404 56.1311 44.4319 56.3539 44.6221 56.5778C44.772 56.7015 44.9219 56.8005 45.0468 56.8996C45.1576 56.9825 45.2745 57.0569 45.3966 57.1222C45.5647 57.2113 45.7402 57.2859 45.9211 57.3451C46.0211 57.3699 46.146 57.4441 46.2459 57.4688C46.5395 57.5463 46.8415 57.5878 47.1451 57.5925H47.2201C47.5505 57.5917 47.8788 57.5416 48.1945 57.4441C48.2944 57.4193 48.3694 57.3699 48.4692 57.3451C48.6923 57.2611 48.9093 57.1619 49.1188 57.0481C49.1688 57.0233 49.1937 57.0232 49.2187 56.9985C49.2747 56.9555 49.325 56.9056 49.3685 56.85C49.6164 56.6703 49.8427 56.4627 50.0431 56.2312C50.118 56.1323 50.193 56.058 50.2679 55.9591C50.3019 55.9036 50.344 55.8536 50.3929 55.8106C52.0192 53.1223 54.315 50.9019 57.056 49.3662C59.797 47.8305 62.8895 47.0321 66.0314 47.0489C68.7357 47.0549 71.4058 47.6542 73.8532 48.8046C76.3006 49.955 78.4658 51.6283 80.196 53.7067C83.6559 57.8989 84.8845 63.1233 83.7997 69.7226L83.7685 69.9201C85.4856 70.3436 87.1633 70.9136 88.783 71.6236C89.0448 71.7332 89.3283 71.7807 89.6114 71.7626C89.8946 71.7444 90.1697 71.661 90.4153 71.519C90.6609 71.3769 90.8704 71.18 91.0273 70.9436C91.1842 70.7073 91.2844 70.4378 91.32 70.1564C92.4723 61.9293 90.6699 54.6486 86.0168 49.0043ZM63.8389 116.517C63.8411 116.532 63.8389 116.546 63.8408 116.562C63.8364 116.526 63.8246 116.493 63.8191 116.458C63.8223 116.479 63.8361 116.495 63.8389 116.517ZM43.6227 10.0972C46.4956 12.7207 47.5698 16.9035 47.9446 20.022L33.6051 6.58269C36.7527 6.75591 40.8748 7.52321 43.6227 10.0972ZM36.0283 18.2152C33.1554 15.5669 32.1062 11.3842 31.7314 8.24089L46.1209 21.705C42.9482 21.5565 38.8013 20.7893 36.0283 18.2152Z" fill="url(#paint0_linear_20_6)"/>
<path d="M43.1485 99.4456C43.1485 99.4456 48.8392 110.34 55.9502 112.385C63.0612 114.431 57.0972 115.87 57.0972 115.87C57.0972 115.87 57.8618 117.991 52.433 114.734C47.0041 111.476 47.4629 111.779 47.4629 111.779L44.0986 107.997L41.9576 104.431L41.5753 101.704" fill="url(#paint1_linear_20_6)"/>
<path d="M19.123 96.2178C19.123 96.2178 24.4197 110.352 32.5355 110.648C33.5368 110.652 34.5206 110.387 35.3846 109.88C36.2485 109.374 36.961 108.646 37.4477 107.771C37.4477 107.771 36.0808 103.2 36.8924 101.169C36.8924 101.169 35.5566 102.81 41.6493 111.152C41.6493 111.152 35.8673 115.092 30.6988 112.807C30.6988 112.807 24.4567 111.401 19.123 96.2178Z" fill="#A60A23"/>
<path d="M11.3974 135.63C11.7151 135.612 12.0298 135.7 12.2922 135.881C12.5546 136.061 12.7499 136.323 12.8476 136.626L19.2071 154.644C19.5144 155.528 19.1518 156.08 18.1755 156.08H15.1913C14.8716 156.105 14.5535 156.017 14.2931 155.83C14.0327 155.642 13.8469 155.369 13.7687 155.058L12.9037 152.543H6.76696L5.90196 155.058C5.81387 155.369 5.62178 155.64 5.35779 155.826C5.09381 156.012 4.77395 156.102 4.45172 156.08H1.43908C0.462763 156.08 0.100205 155.528 0.407505 154.644L6.79459 136.626C6.88624 136.324 7.07619 136.063 7.33408 135.882C7.59197 135.702 7.90291 135.613 8.2172 135.63H11.3974ZM11.7323 148.01L9.80728 142.346L8.05058 148.01H11.7323Z" fill="url(#paint2_linear_20_6)"/>
<path d="M38.4353 142.346C38.4618 143.345 38.2653 144.337 37.86 145.25C37.4547 146.163 36.8509 146.974 36.0925 147.624C34.7606 148.628 33.1295 149.154 31.4621 149.117H27.4731V154.836C27.4967 155.006 27.4803 155.179 27.4254 155.341C27.3705 155.504 27.2785 155.651 27.1567 155.772C27.0349 155.893 26.8867 155.984 26.7237 156.037C26.5608 156.091 26.3876 156.105 26.2179 156.08H23.4564C23.2868 156.105 23.1136 156.091 22.9507 156.037C22.7878 155.983 22.6396 155.893 22.5178 155.772C22.396 155.651 22.304 155.504 22.2491 155.341C22.1942 155.179 22.1778 155.006 22.2013 154.836V136.875C22.1778 136.705 22.1942 136.532 22.2491 136.369C22.304 136.207 22.396 136.059 22.5178 135.939C22.6396 135.818 22.7878 135.727 22.9507 135.674C23.1136 135.62 23.2868 135.605 23.4564 135.63H31.936C33.5632 135.581 35.1516 136.132 36.3989 137.178C36.9743 137.73 37.4384 138.386 37.7663 139.113C38.2105 140.133 38.4383 141.234 38.4353 142.346ZM33.3586 142.346C33.3757 142.119 33.3432 141.891 33.2635 141.678C33.1838 141.464 33.0588 141.271 32.897 141.111C32.7352 140.95 32.5406 140.827 32.3265 140.749C32.1125 140.672 31.8841 140.641 31.6572 140.661H27.4731V144.087H31.4621C31.7018 144.101 31.9419 144.067 32.1681 143.986C32.3943 143.906 32.602 143.78 32.7789 143.618C32.9558 143.456 33.0983 143.259 33.1979 143.041C33.2975 142.823 33.3521 142.586 33.3586 142.346Z" fill="url(#paint3_linear_20_6)"/>
<path d="M57.6334 142.346C57.6599 143.345 57.4634 144.337 57.0581 145.25C56.6528 146.163 56.0489 146.974 55.2906 147.624C53.9587 148.628 52.3276 149.154 50.6602 149.117H46.6712V154.836C46.6947 155.006 46.6784 155.179 46.6235 155.341C46.5686 155.504 46.4766 155.651 46.3548 155.772C46.233 155.893 46.0848 155.984 45.9218 156.037C45.7589 156.091 45.5857 156.105 45.416 156.08H42.6546C42.4849 156.105 42.3118 156.091 42.1488 156.037C41.9859 155.983 41.8377 155.893 41.7159 155.772C41.5942 155.651 41.5022 155.504 41.4472 155.341C41.3923 155.179 41.3759 155.006 41.3994 154.836V136.875C41.3759 136.705 41.3923 136.532 41.4472 136.369C41.5022 136.207 41.5942 136.059 41.7159 135.939C41.8377 135.818 41.9859 135.727 42.1488 135.674C42.3118 135.62 42.4849 135.605 42.6546 135.63H51.1341C52.7613 135.581 54.3497 136.132 55.597 137.178C56.1724 137.73 56.6366 138.386 56.9644 139.113C57.4086 140.133 57.6364 141.234 57.6334 142.346ZM52.5567 142.346C52.5738 142.119 52.5413 141.891 52.4616 141.678C52.3819 141.464 52.2569 141.271 52.0951 141.111C51.9333 140.95 51.7387 140.827 51.5246 140.749C51.3106 140.672 51.0822 140.641 50.8553 140.661H46.6712V144.087H50.6602C50.8999 144.101 51.14 144.067 51.3662 143.986C51.5924 143.906 51.8001 143.78 51.977 143.618C52.1539 143.456 52.2964 143.259 52.396 143.041C52.4956 142.823 52.5502 142.586 52.5567 142.346Z" fill="url(#paint4_linear_20_6)"/>
<path d="M66.4002 150.858H73.7912C73.9608 150.833 74.134 150.847 74.297 150.901C74.4599 150.954 74.6081 151.045 74.7299 151.166C74.8517 151.287 74.9437 151.434 74.9986 151.597C75.0536 151.759 75.0699 151.932 75.0463 152.102V154.836C75.0699 155.006 75.0536 155.179 74.9986 155.342C74.9437 155.504 74.8517 155.651 74.7299 155.772C74.6081 155.893 74.4599 155.984 74.297 156.037C74.134 156.091 73.9608 156.106 73.7912 156.081H62.3835C62.2139 156.106 62.0407 156.091 61.8778 156.037C61.7148 155.984 61.5666 155.893 61.4448 155.772C61.323 155.651 61.231 155.504 61.1761 155.342C61.1212 155.179 61.1048 155.006 61.1284 154.836V136.875C61.1048 136.705 61.1212 136.532 61.1761 136.369C61.231 136.207 61.323 136.059 61.4448 135.938C61.5666 135.818 61.7148 135.727 61.8778 135.674C62.0407 135.62 62.2139 135.605 62.3835 135.63H65.1442C65.3139 135.605 65.4871 135.62 65.6501 135.673C65.8131 135.727 65.9614 135.818 66.0833 135.938C66.2052 136.059 66.2972 136.207 66.3522 136.369C66.4072 136.532 66.4237 136.705 66.4002 136.875L66.4002 150.858Z" fill="url(#paint5_linear_20_6)"/>
<path d="M93.9096 154.836C93.9331 155.006 93.9167 155.179 93.8618 155.341C93.8068 155.504 93.7148 155.651 93.593 155.772C93.4713 155.893 93.323 155.984 93.1601 156.037C92.9972 156.091 92.8241 156.105 92.6544 156.081H80.6883C80.5186 156.106 80.3453 156.091 80.1823 156.037C80.0193 155.984 79.871 155.893 79.7492 155.772C79.6273 155.652 79.5352 155.504 79.4802 155.342C79.4252 155.179 79.4088 155.006 79.4323 154.836V136.875C79.4088 136.705 79.4252 136.532 79.4802 136.369C79.5352 136.207 79.6273 136.059 79.7492 135.938C79.871 135.818 80.0193 135.727 80.1823 135.673C80.3453 135.62 80.5186 135.605 80.6883 135.63H92.6544C92.8241 135.605 92.9972 135.62 93.1601 135.674C93.3231 135.727 93.4713 135.818 93.5931 135.939C93.7148 136.059 93.8068 136.207 93.8618 136.369C93.9167 136.532 93.9331 136.705 93.9096 136.875V139.61C93.933 139.78 93.9166 139.953 93.8617 140.115C93.8067 140.278 93.7146 140.425 93.5928 140.546C93.471 140.666 93.3228 140.757 93.1599 140.81C92.9971 140.864 92.824 140.878 92.6544 140.853H84.7049V143.423H90.562C90.7317 143.398 90.9048 143.413 91.0678 143.466C91.2307 143.52 91.3789 143.611 91.5007 143.731C91.6225 143.852 91.7145 144 91.7695 144.162C91.8244 144.325 91.8407 144.498 91.8171 144.667V147.017C91.8405 147.187 91.8241 147.359 91.769 147.522C91.714 147.684 91.622 147.831 91.5002 147.952C91.3784 148.072 91.2303 148.163 91.0674 148.216C90.9046 148.27 90.7315 148.285 90.562 148.259H84.7049V150.858H92.6544C92.8241 150.833 92.9972 150.848 93.1601 150.901C93.3231 150.955 93.4713 151.045 93.5931 151.166C93.7148 151.287 93.8068 151.434 93.8618 151.597C93.9167 151.759 93.9331 151.932 93.9096 152.102L93.9096 154.836Z" fill="url(#paint6_linear_20_6)"/>
<defs>
<linearGradient id="paint0_linear_20_6" x1="2.5528" y1="60.8874" x2="91.6578" y2="60.8874" gradientUnits="userSpaceOnUse">
<stop stop-color="#3F2000"/>
<stop offset="0.9448" stop-color="#3F2000"/>
</linearGradient>
<linearGradient id="paint1_linear_20_6" x1="41.5753" y1="107.997" x2="59.4381" y2="107.997" gradientUnits="userSpaceOnUse">
<stop stop-color="#3F2000"/>
<stop offset="0.9448" stop-color="#3F2000"/>
</linearGradient>
<linearGradient id="paint2_linear_20_6" x1="0.301094" y1="145.855" x2="19.3135" y2="145.855" gradientUnits="userSpaceOnUse">
<stop stop-color="#3F2000"/>
<stop offset="0.9448" stop-color="#3F2000"/>
</linearGradient>
<linearGradient id="paint3_linear_20_6" x1="22.2013" y1="145.855" x2="38.4353" y2="145.855" gradientUnits="userSpaceOnUse">
<stop stop-color="#3F2000"/>
<stop offset="0.9448" stop-color="#3F2000"/>
</linearGradient>
<linearGradient id="paint4_linear_20_6" x1="41.3994" y1="145.855" x2="57.6334" y2="145.855" gradientUnits="userSpaceOnUse">
<stop stop-color="#3F2000"/>
<stop offset="0.9448" stop-color="#3F2000"/>
</linearGradient>
<linearGradient id="paint5_linear_20_6" x1="61.1284" y1="145.855" x2="75.0464" y2="145.855" gradientUnits="userSpaceOnUse">
<stop stop-color="#3F2000"/>
<stop offset="0.9448" stop-color="#3F2000"/>
</linearGradient>
<linearGradient id="paint6_linear_20_6" x1="79.4323" y1="145.855" x2="93.9096" y2="145.855" gradientUnits="userSpaceOnUse">
<stop stop-color="#3F2000"/>
<stop offset="0.9448" stop-color="#3F2000"/>
</linearGradient>
</defs>
</svg>
