<svg width="134" height="145" viewBox="0 0 134 145" fill="none" xmlns="http://www.w3.org/2000/svg">
<path d="M85.0831 42.5137C85.1331 63.7987 77.7635 80.0595 73.0669 90.4298C72.917 90.7268 72.7921 90.999 72.6672 91.296C72.4923 91.4198 72.2925 91.4941 72.1176 91.6426C65.1977 98.3993 51.2329 98.2755 42.2645 97.5083C47.7237 95.7949 52.8334 93.1213 57.3534 89.613C66.3219 82.7325 78.0882 69.0457 83.1595 42.7612C83.1801 42.6888 83.1886 42.6135 83.1845 42.5384L85.0831 42.5137Z" fill="white"/>
<path d="M74.9905 105.131C74.9905 104.364 75.4651 103.745 76.6892 102.557C78.6751 102.274 80.5854 101.601 82.3101 100.577C81.3358 101.567 80.4365 102.409 79.687 103.126C78.8972 103.827 78.1544 104.58 77.4637 105.379C77.3996 105.68 77.2267 105.947 76.978 106.128C76.7294 106.31 76.4226 106.393 76.1162 106.362C75.8099 106.332 75.5257 106.189 75.318 105.962C75.1102 105.735 74.9936 105.439 74.9905 105.131Z" fill="#3F2000"/>
<path d="M65.9471 22.7136C65.2432 23.0015 64.454 22.999 63.7519 22.7068C63.0497 22.4147 62.4918 21.8565 62.1999 21.1543C62.0571 20.8093 61.9846 20.4392 61.9866 20.0658C61.9887 19.6924 62.0652 19.3231 62.2118 18.9796C62.3584 18.6362 62.572 18.3254 62.8402 18.0656C63.1084 17.8058 63.4258 17.6021 63.7737 17.4666L87.5064 7.88824C87.8548 7.74335 88.2282 7.66772 88.6055 7.66553C89.1736 7.66754 89.7284 7.83785 90.1997 8.15503C90.6711 8.4722 91.0378 8.92199 91.2536 9.44751C91.398 9.79312 91.4702 10.1645 91.4659 10.5391C91.4616 10.9136 91.3809 11.2833 91.2286 11.6255C91.0843 11.9707 90.8731 12.284 90.6073 12.5473C90.3415 12.8106 90.0263 13.0189 89.6797 13.16L75.5401 18.8525C75.4152 18.902 75.2903 18.9515 75.1903 19.001L65.9471 22.7136Z" fill="white"/>
<path d="M80.7113 42.2909C72.2425 86.148 44.8126 94.464 39.3167 95.7015C40.7032 93.5139 42.2128 91.4067 43.8383 89.3903C43.9428 89.2856 44.035 89.1693 44.1131 89.0438C46.5363 86.0243 49.5591 82.5345 52.9816 78.8962C56.4041 75.2827 60.2263 71.4712 64.2484 67.8082C76.4145 56.6954 79.5622 32.6384 80.2866 24.9659L82.8847 23.9016C83.0531 26.2561 83.5318 28.5779 84.3087 30.8069C84.8173 34.6885 85.076 38.5989 85.0832 42.5137L83.1845 42.5385C83.19 42.2465 83.0891 41.9624 82.9006 41.7393C82.7122 41.5162 82.4491 41.3692 82.1603 41.3257C82.0017 41.2928 81.8381 41.2918 81.6791 41.3226C81.5201 41.3535 81.3688 41.4156 81.234 41.5054C81.0992 41.5952 80.9836 41.7109 80.8939 41.8457C80.8041 41.9806 80.7421 42.1319 80.7113 42.2909Z" fill="white"/>
<path d="M38.1924 84.5144C38.0425 84.6629 34.695 87.5092 23.8279 81.9156C22.8225 81.407 21.8541 80.8281 20.9301 80.1832C29.7314 79.8433 38.3375 77.4894 46.0866 73.3026C46.2296 73.2246 46.3556 73.1188 46.4571 72.9915C46.5587 72.8641 46.6338 72.7177 46.678 72.561C46.7222 72.4042 46.7347 72.2401 46.7146 72.0785C46.6946 71.9168 46.6424 71.7609 46.5613 71.6196C46.4831 71.4747 46.3769 71.3468 46.2489 71.2433C46.1208 71.1399 45.9735 71.0628 45.8154 71.0168C45.6574 70.9707 45.4917 70.9566 45.3281 70.9751C45.1646 70.9936 45.0063 71.0444 44.8625 71.1246C37.4961 75.06 29.3471 77.3087 21.005 77.7081C24.3775 75.4559 32.1718 72.4116 38.692 69.8871L40.4907 69.1942C54.8801 63.5759 65.8971 45.1865 71.418 34.1975C69.6693 43.553 66.1469 55.9528 59.152 62.3631C58.3527 63.0808 46.4114 74.0698 38.1924 84.5144Z" fill="white"/>
<path d="M37.2681 97.2854C37.2298 96.9597 37.3209 96.632 37.5218 96.3727C37.7227 96.1135 38.0173 95.9435 38.3423 95.8994C38.6626 95.8536 38.9797 95.7875 39.2916 95.7014C38.9918 96.2212 38.717 96.6914 38.5172 97.1121C39.6164 97.2359 40.8904 97.3844 42.2644 97.5081C41.0954 97.8739 39.9015 98.1551 38.6921 98.3496H38.5172C38.2161 98.3509 37.9246 98.2443 37.6954 98.0491C37.4662 97.8538 37.3146 97.5829 37.2681 97.2854Z" fill="#3F2000"/>
<path d="M19.5311 78.9703C19.9495 79.4267 20.4189 79.8336 20.9301 80.183C20.5054 80.2078 20.1807 80.2078 19.9308 80.2078H19.4812C19.3193 80.2043 19.1598 80.1688 19.0117 80.1034C18.8637 80.038 18.7301 79.9438 18.6186 79.8265C18.5071 79.7091 18.42 79.5709 18.3622 79.4197C18.3044 79.2685 18.2772 79.1073 18.282 78.9455C18.2939 78.6214 18.4305 78.3144 18.6632 78.0884C18.8959 77.8625 19.2068 77.7351 19.5311 77.7328H19.8059C20.0308 77.7328 20.4555 77.7328 21.0051 77.708C20.4445 78.0404 19.9457 78.4675 19.5311 78.9703Z" fill="#3F2000"/>
<path d="M91.2536 9.44727C91.1137 9.09644 90.9045 8.77747 90.6383 8.50952C90.3722 8.24158 90.0546 8.03018 89.7047 7.888C89.4537 7.79805 89.1909 7.74481 88.9247 7.72998C89.1803 7.99113 89.382 8.30009 89.5182 8.63922C89.6626 8.98483 89.7348 9.35625 89.7305 9.73077C89.7262 10.1053 89.6455 10.475 89.4933 10.8172C89.3489 11.1624 89.1378 11.4757 88.872 11.7391C88.6062 12.0024 88.2909 12.2106 87.9444 12.3517L73.8047 18.0444C73.6798 18.0938 73.5549 18.1433 73.455 18.1928L64.2118 21.9053C63.7636 22.0745 63.2799 22.1275 62.8058 22.0594C63.2058 22.4673 63.7179 22.7471 64.2771 22.8635C64.8363 22.9799 65.4176 22.9277 65.9471 22.7134L75.1903 19.0009C75.2903 18.9513 75.4153 18.9018 75.5401 18.8522L89.6797 13.1597C90.0263 13.0186 90.3415 12.8105 90.6073 12.5471C90.8731 12.2838 91.0842 11.9705 91.2285 11.6252C91.3808 11.2831 91.4616 10.9133 91.4659 10.5388C91.4702 10.1643 91.398 9.79287 91.2536 9.44727Z" fill="#F68F1E"/>
<path d="M63.7737 17.4664L87.5063 7.88818C87.8548 7.74333 88.2281 7.66765 88.6055 7.66547C88.713 7.68092 88.8196 7.70255 88.9246 7.73016C88.6574 7.45548 88.338 7.23682 87.9853 7.08698C87.6325 6.93713 87.2535 6.85907 86.8702 6.85742C86.4928 6.85956 86.1194 6.93526 85.771 7.08026L62.0383 16.6585C61.4485 16.8869 60.9535 17.3084 60.6337 17.8541C60.3139 18.3998 60.1883 19.0376 60.2772 19.6638C60.3662 20.29 60.6645 20.8677 61.1237 21.3027C61.5828 21.7378 62.1757 22.0045 62.8058 22.0596C62.4761 21.7301 62.2339 21.3234 62.1011 20.8766C61.9683 20.4298 61.9491 19.9569 62.0452 19.5008C62.1413 19.0447 62.3497 18.6197 62.6516 18.2645C62.9534 17.9092 63.3391 17.635 63.7737 17.4664Z" fill="#FFD700"/>
<path d="M64.2117 21.9056L73.455 18.1931C73.5548 18.1435 73.6797 18.0939 73.8046 18.0446L87.9444 12.3519C88.2909 12.2108 88.6061 12.0026 88.8719 11.7393C89.1377 11.4759 89.3489 11.1627 89.4932 10.8174C89.6454 10.4752 89.7262 10.1055 89.7305 9.73102C89.7348 9.3565 89.6626 8.98501 89.5182 8.6394C89.382 8.30028 89.1803 7.99131 88.9246 7.73016C88.8196 7.70255 88.713 7.68098 88.6055 7.66553C88.2281 7.66771 87.8548 7.74333 87.5063 7.88818L63.7736 17.4665C63.339 17.635 62.9534 17.9093 62.6515 18.2645C62.3497 18.6198 62.1413 19.0447 62.0452 19.5008C61.9491 19.9569 61.9683 20.4298 62.1011 20.8766C62.2339 21.3235 62.4761 21.7301 62.8057 22.0597C63.2799 22.1277 63.7636 22.0747 64.2117 21.9056Z" fill="#FFD700"/>
<path d="M71.418 34.1975C65.8972 45.1865 54.8802 63.5758 40.4907 69.1942L38.6921 69.8872C32.1719 72.4116 24.3776 75.456 21.005 77.7082C20.4555 77.733 20.0307 77.733 19.8059 77.733H19.5312C19.2068 77.7353 18.8959 77.8627 18.6632 78.0886C18.4305 78.3146 18.2939 78.6215 18.2821 78.9457C18.2771 79.2132 18.3603 79.475 18.5189 79.6905C18.6775 79.906 18.9027 80.0633 19.1596 80.1381C30.6288 76.7647 42.8748 73.2052 53.6184 67.6396C56.637 64.6696 58.8264 62.6556 59.1521 62.3632C66.147 55.9529 69.6694 43.5531 71.418 34.1975Z" fill="url(#paint0_linear_20_26)"/>
<path d="M19.4812 80.2078H19.9308C20.1808 80.2078 20.5054 80.2078 20.9302 80.183C21.8542 80.8278 22.8225 81.4068 23.828 81.9155C34.6951 87.5091 38.0426 84.6628 38.1925 84.5143C42.9941 78.5874 48.1453 72.9524 53.6185 67.6394C42.8748 73.205 30.6289 76.7644 19.1596 80.1378C19.2627 80.177 19.3711 80.2006 19.4812 80.2078Z" fill="#F9A11B"/>
<path d="M83.4336 27.7054C83.1411 26.4556 82.9574 25.1829 82.8847 23.9014L80.2867 24.9656C79.5622 32.638 76.4144 56.6952 64.2484 67.808C60.2264 71.471 56.4042 75.2825 52.9816 78.8959C49.5591 82.5343 46.5364 86.024 44.1131 89.0436C44.035 89.1691 43.9428 89.2853 43.8384 89.39C42.2128 91.4064 40.7032 93.5136 39.3167 95.7014H39.2917C38.9798 95.7874 38.6627 95.8535 38.3424 95.8992C38.109 95.9226 37.8875 96.0133 37.7048 96.1603C37.5221 96.3074 37.3862 96.5044 37.3136 96.7274C37.2409 96.9504 37.2348 97.1897 37.2958 97.4161C37.3568 97.6426 37.4824 97.8463 37.6573 98.0026C68.4714 90.3217 83.1234 59.0746 83.4336 27.7054Z" fill="url(#paint1_linear_20_26)"/>
<path d="M84.3087 30.8068C83.9653 29.7883 83.6733 28.7533 83.4336 27.7056C83.1233 59.0747 68.4714 90.3219 37.6572 98.0028C37.8888 98.2244 38.1967 98.3486 38.5172 98.3498H38.6921C39.9015 98.1553 41.0954 97.874 42.2645 97.5082C51.233 98.2755 65.1976 98.3992 72.1176 91.6425C72.2925 91.494 72.4923 91.4197 72.6671 91.296C72.7921 90.999 72.917 90.7267 73.0669 90.4297C77.7635 80.0595 85.1331 63.7987 85.0831 42.5137C85.0759 38.5988 84.8172 34.6885 84.3087 30.8068Z" fill="#F68F1E"/>
<path d="M92.9026 25.3171C91.9104 24.6505 91.0501 24.1096 90.3792 23.7034C90.5673 25.4064 90.9444 27.0833 91.5034 28.7029C91.5963 28.9511 91.6632 29.2082 91.7032 29.4702C95.6003 58.7989 85.7825 80.5048 79.9119 93.4738C78.4131 96.7408 76.6393 100.676 76.2395 102.582C76.3899 102.586 76.5403 102.578 76.6893 102.557C75.4651 103.745 74.9904 104.364 74.9904 105.131C74.9936 105.439 75.1102 105.735 75.318 105.962C75.5257 106.189 75.8099 106.332 76.1163 106.362C76.4226 106.393 76.7295 106.31 76.9781 106.128C77.2268 105.947 77.3997 105.68 77.4637 105.379C78.1545 104.58 78.8972 103.827 79.687 103.126C80.4366 102.409 81.3359 101.567 82.3102 100.577C83.0069 100.216 83.7429 99.7926 84.5083 99.3199C102.327 78.6761 108.319 48.1933 92.9026 25.3171Z" fill="url(#paint2_linear_20_26)"/>
<path d="M92.9026 25.3171C108.319 48.1933 102.327 78.6761 84.5083 99.3199C87.0548 97.7124 89.4766 95.9154 91.7532 93.9441C103.02 84.2669 114.836 68.1793 114.212 55.7052C113.468 40.9892 99.8906 30.0127 92.9026 25.3171Z" fill="#F68F1E"/>
<path d="M91.7533 93.9442C103.02 84.2669 114.836 68.1794 114.212 55.7053C113.362 38.9 95.7753 26.9705 90.3793 23.7035C90.5675 25.4065 90.9445 27.0833 91.5035 28.703C91.5963 28.9512 91.6633 29.2083 91.7033 29.4703C95.6005 58.7991 85.7826 80.5049 79.9119 93.4739C78.413 96.7409 76.6394 100.676 76.2396 102.582C76.39 102.586 76.5404 102.578 76.6893 102.557C75.4652 103.745 74.9906 104.364 74.9906 105.131C74.9937 105.439 75.1103 105.735 75.318 105.962C75.5258 106.189 75.81 106.332 76.1163 106.362C76.4226 106.393 76.7295 106.31 76.9781 106.128C77.2267 105.947 77.3996 105.68 77.4637 105.379C78.1545 104.58 78.8972 103.827 79.6871 103.126C80.4366 102.409 81.3359 101.567 82.3102 100.577C85.6926 98.7208 88.8596 96.4963 91.7533 93.9442ZM80.2867 24.9657C79.5622 32.6383 76.4145 56.6953 64.2484 67.8081C60.2264 71.4711 56.4042 75.2826 52.9817 78.8961C49.5592 82.5344 46.5364 86.0241 44.1132 89.0436C44.035 89.1692 43.9428 89.2854 43.8384 89.3901C42.2129 91.4066 40.7032 93.5137 39.3167 95.7014H39.2917C38.9798 95.7874 38.6627 95.8536 38.3424 95.8994C38.0283 95.9365 37.7406 96.0931 37.539 96.3368C37.3375 96.5805 37.2375 96.8925 37.2601 97.208C37.2826 97.5235 37.4258 97.8181 37.6599 98.0307C37.894 98.2434 38.2011 98.3576 38.5173 98.3497H38.6921C39.9016 98.1552 41.0954 97.874 42.2645 97.5082C51.2329 98.2754 65.1977 98.3991 72.1176 91.6424C72.2925 91.4939 72.4924 91.4196 72.6672 91.2959C72.7921 90.9989 72.9171 90.7266 73.0669 90.4296C77.7635 80.0593 85.1331 63.7985 85.0832 42.5135C85.076 38.5987 84.8173 34.6883 84.3087 30.8067C83.5318 28.5777 83.053 26.2559 82.8847 23.9014L80.2867 24.9657ZM63.7738 17.4665C63.4258 17.6021 63.1085 17.8057 62.8403 18.0655C62.5721 18.3254 62.3584 18.6361 62.2118 18.9795C62.0652 19.323 61.9887 19.6923 61.9867 20.0657C61.9846 20.4391 62.0571 20.8092 62.1999 21.1542C62.4918 21.8565 63.0498 22.4146 63.7519 22.7068C64.454 22.9989 65.2433 23.0014 65.9472 22.7135L75.1904 19.001C75.2904 18.9515 75.4153 18.902 75.5402 18.8525L89.6798 13.16C90.0263 13.0188 90.3415 12.8106 90.6074 12.5473C90.8732 12.2839 91.0843 11.9706 91.2287 11.6254C91.3809 11.2832 91.4617 10.9135 91.466 10.539C91.4703 10.1645 91.398 9.79304 91.2537 9.44744C91.0378 8.92191 90.6711 8.47213 90.1998 8.15496C89.7285 7.83778 89.1737 7.66746 88.6056 7.66545C88.2282 7.66765 87.8549 7.74328 87.5064 7.88817L63.7738 17.4665ZM11.9118 78.6239C12.2615 72.1889 21.18 68.7239 35.9442 62.9819L37.7428 62.2641C50.0338 57.4874 60.0265 40.3356 64.9479 30.3365C64.9229 30.3365 64.8979 30.3613 64.873 30.3613C62.8149 30.3668 60.8016 29.7604 59.089 28.6189C57.3764 27.4775 56.0419 25.8528 55.255 23.951C54.7456 22.7001 54.4889 21.3607 54.4998 20.0101C54.5107 18.6595 54.789 17.3244 55.3185 16.0819C55.848 14.8394 56.6184 13.714 57.5851 12.7707C58.5518 11.8275 59.6957 11.0849 60.9508 10.586L84.6834 1.00774C87.2336 -0.0282502 90.0906 -0.0104491 92.6276 1.05724C94.229 1.71417 95.6365 2.76857 96.7171 4.12078C97.7977 5.47298 98.5157 7.07833 98.8032 8.7852C99.0908 10.4921 98.9384 12.2441 98.3605 13.8757C97.7826 15.5073 96.7983 16.9647 95.5005 18.11C102.92 22.8125 120.732 36.0291 121.706 55.3342C122.456 70.3822 109.665 88.3755 96.6746 99.5625C91.9281 103.622 83.3344 110.057 76.2646 110.057C75.6102 110.054 74.9576 109.988 74.3161 109.859C73.2966 109.72 72.3234 109.346 71.4735 108.766C70.6237 108.186 69.9205 107.416 69.4197 106.517C68.7828 105.213 68.5563 103.746 68.7701 102.31C62.9244 104.611 56.2543 105.304 50.2088 105.304C45.2269 105.254 40.2535 104.882 35.3197 104.191C34.2833 104.106 33.2947 103.719 32.4772 103.076C31.6598 102.434 31.0496 101.564 30.723 100.577C30.0735 98.5973 30.9479 95.8005 32.6716 92.6325C28.3594 92.0049 24.1958 90.6048 20.3806 88.4993C16.6333 86.5687 11.662 83.4502 11.9118 78.6239ZM19.5312 77.7329C19.2069 77.7352 18.8959 77.8626 18.6632 78.0885C18.4305 78.3145 18.294 78.6215 18.2821 78.9456C18.2773 79.1074 18.3045 79.2686 18.3623 79.4198C18.42 79.571 18.5072 79.7092 18.6187 79.8266C18.7301 79.9439 18.8638 80.0381 19.0118 80.1035C19.1599 80.1689 19.3194 80.2044 19.4812 80.2079H19.9309C20.1807 80.2079 20.5055 80.2079 20.9302 80.1832C21.8542 80.828 22.8226 81.4069 23.8281 81.9156C34.6951 87.5092 38.0426 84.6629 38.1925 84.5144C46.4115 74.0699 58.3528 63.0808 59.1522 62.3631C66.1471 55.9528 69.6695 43.553 71.4182 34.1975C65.8972 45.1865 54.8803 63.5758 40.4908 69.1941L38.6922 69.8871C32.1719 72.4116 24.3776 75.4559 21.0051 77.7081C20.4555 77.7329 20.0309 77.7328 19.806 77.7328L19.5312 77.7329Z" fill="#3F2000"/>
<path d="M39.3167 95.7014V95.3654C39.0169 95.8852 38.7171 96.6913 38.5172 97.1121C39.6164 97.2358 40.8905 97.3843 42.2645 97.5081C47.7236 95.7947 52.8333 93.121 57.3534 89.6128C64.8767 83.841 74.3543 73.2461 80.2115 54.4763C79.425 54.2015 78.6046 54.0354 77.7731 53.9824C67.1635 87.6758 44.2837 94.583 39.3167 95.7014Z" fill="#3F2000"/>
<path d="M83.8254 40.8148C83.8309 40.5228 83.73 40.2389 83.5415 40.0157C83.3531 39.7926 83.09 39.6456 82.8012 39.6021C82.6426 39.5692 82.4791 39.5682 82.3201 39.5991C82.1611 39.6299 82.0097 39.692 81.8749 39.7818C81.7401 39.8716 81.6245 39.9873 81.5348 40.1222C81.4451 40.257 81.383 40.4083 81.3522 40.5674C80.7867 43.9384 79.9984 47.2682 78.9923 50.535C79.8238 50.5879 80.6442 50.7541 81.4307 51.0288C82.4366 47.7534 83.2282 44.4159 83.8004 41.0377C83.821 40.9653 83.8295 40.89 83.8254 40.8148Z" fill="#3F2000"/>
<path d="M46.0867 73.3027C38.3376 77.4895 29.7314 79.8434 20.9301 80.1832C20.4189 79.8338 19.9495 79.4269 19.5311 78.9705C19.9457 78.4677 20.4444 78.0406 21.005 77.7082C29.3471 77.3087 37.4962 75.06 44.8626 71.1247C45.0063 71.0445 45.1646 70.9937 45.3282 70.9752C45.4918 70.9567 45.6574 70.9708 45.8155 71.0169C45.9735 71.0629 46.1208 71.1399 46.2489 71.2434C46.3769 71.3469 46.4831 71.4748 46.5613 71.6197C46.6425 71.7609 46.6946 71.917 46.7146 72.0786C46.7347 72.2403 46.7223 72.4043 46.6781 72.561C46.6338 72.7178 46.5587 72.8642 46.4572 72.9915C46.3557 73.1189 46.2297 73.2247 46.0867 73.3027Z" fill="#3F2000"/>
<path d="M101.271 37.8109C106.667 72.956 91.0038 91.9146 82.3102 100.577C80.5854 101.601 78.6751 102.274 76.6893 102.557C77.039 102.211 77.4637 101.815 77.9633 101.344C85.258 94.3896 104.619 76.0002 98.8231 38.1821C98.7936 38.0218 98.797 37.8572 98.8331 37.6982C98.8692 37.5393 98.9372 37.3893 99.033 37.2574C99.1287 37.1255 99.2503 37.0144 99.3903 36.9308C99.5303 36.8473 99.6857 36.7931 99.8473 36.7714C100.009 36.7438 100.175 36.7489 100.335 36.7865C100.495 36.8241 100.646 36.8934 100.779 36.9903C100.912 37.0872 101.024 37.2098 101.108 37.3508C101.193 37.4917 101.248 37.6482 101.271 37.8109Z" fill="#3F2000"/>
<path d="M21.3556 77.6921L20.5951 78.9581L20.9754 81.0891L17.9177 83.0785L15.166 80.2079C15.166 80.2079 13.3067 79.3207 16.2072 76.8155L19.1077 74.3103L22.3057 75.1945" fill="#3F2000"/>
<path d="M39.7624 94.3519L38.7259 96.7087H42.2645V98.7728C42.2645 98.7728 42.6204 99.5833 40.4952 99.436C38.9062 99.2607 37.3438 98.896 35.8414 98.3497V96.5624L36.957 93.7625" fill="#3F2000"/>
<path d="M76.2396 102.582C78.8941 101.978 81.4627 101.045 83.8857 99.8043C87.6787 97.8149 85.4475 103.473 85.4475 103.473L79.2746 107.615H76.2396L73.1761 106.369C73.1761 106.369 72.4324 106.067 72.5811 104.373" fill="#3F2000"/>
<path d="M39.3167 95.7015C43.2812 89.6424 47.8313 83.9875 52.9014 78.8181C53.1382 78.5795 53.3772 78.3416 53.6184 78.1042C62.1174 69.7413 68.4393 64.3337 70.5368 59.7834C70.5368 59.7834 81.0163 35.585 80.2866 24.9658C80.7179 31.2427 79.5802 37.8748 78.0894 43.9358C75.5283 54.6492 70.2136 64.5079 62.6714 72.5361C62.1844 73.0494 61.6848 73.5515 61.1791 74.0469C59.1695 76.0157 57.009 77.8076 55.0277 79.8063L41.1267 93.8702C40.4636 94.4185 39.8572 95.032 39.3167 95.7015Z" fill="white"/>
<path d="M21.0051 77.7081C26.7278 74.7264 32.6356 72.1141 38.6921 69.8871C49.7603 65.706 61.5441 51.1199 71.4181 34.1975C71.4181 34.1975 64.6416 53.6461 50.3566 64.611C41.5982 71.2539 31.4131 75.7658 20.6083 77.7892" fill="white"/>
<path d="M64.3628 19.2345C64.2188 19.2357 64.0788 19.1865 63.9672 19.0955C63.8555 19.0044 63.7792 18.8772 63.7514 18.7358C63.7236 18.5945 63.7461 18.4479 63.815 18.3214C63.8839 18.1948 63.9948 18.0963 64.1286 18.0429L83.5919 10.1973C83.6673 10.166 83.748 10.1499 83.8296 10.1499C83.9112 10.1499 83.992 10.166 84.0673 10.1974C84.1426 10.2287 84.211 10.2746 84.2685 10.3325C84.326 10.3903 84.3715 10.459 84.4024 10.5345C84.4333 10.6101 84.4489 10.6909 84.4484 10.7725C84.4479 10.8541 84.4313 10.9348 84.3995 11.0099C84.3677 11.085 84.3214 11.1532 84.2632 11.2103C84.205 11.2675 84.136 11.3125 84.0603 11.343L64.597 19.1885C64.5227 19.2191 64.4432 19.2347 64.3628 19.2345Z" fill="white"/>
<path d="M90.3792 23.7034C89.8614 22.9416 93.9671 33.0447 94.1592 36.7578C94.4673 42.7124 98.3332 75.0296 76.2395 102.582C76.2395 102.582 77.1006 99.9777 78.7915 96.0991C81.7889 89.2234 86.5969 78.508 88.1535 72.3745C90.5881 62.7809 95.1101 38.7208 90.3792 23.7034Z" fill="white"/>
<path d="M1.42558 144.82C1.24148 144.847 1.05359 144.831 0.876783 144.773C0.69998 144.715 0.53912 144.616 0.406965 144.485C0.27481 144.354 0.174988 144.194 0.1154 144.018C0.0558116 143.842 0.0381056 143.654 0.0636725 143.47V123.98C0.0381056 123.796 0.0558116 123.608 0.1154 123.432C0.174988 123.255 0.27481 123.096 0.406965 122.965C0.53912 122.833 0.69998 122.735 0.876783 122.677C1.05359 122.619 1.24148 122.603 1.42558 122.63H9.83871C11.6035 122.582 13.3252 123.179 14.6813 124.31C15.2713 124.8 15.7731 125.389 16.1649 126.049C16.6693 127.02 16.919 128.103 16.8908 129.197V129.228C16.8765 130.103 16.6368 130.96 16.1949 131.716C15.9055 132.323 15.4133 132.811 14.803 133.095C15.5466 133.338 16.2069 133.786 16.7091 134.386C17.5577 135.333 18.0686 136.534 18.1619 137.802C18.2081 138.805 18.0431 139.807 17.6776 140.742C17.1928 141.987 16.3313 143.049 15.2136 143.78C14.0958 144.511 12.7777 144.874 11.4432 144.82L1.42558 144.82ZM5.5113 127.669V131.386H9.53616C10.0264 131.385 10.5034 131.227 10.8981 130.936C11.1031 130.782 11.2699 130.583 11.3854 130.354C11.501 130.126 11.5621 129.873 11.5641 129.617C11.5938 129.372 11.5714 129.125 11.4983 128.89C11.4252 128.655 11.3031 128.438 11.14 128.254C10.9769 128.07 10.7765 127.923 10.5522 127.822C10.3279 127.721 10.0847 127.669 9.83874 127.669H5.5113ZM5.5113 135.973V139.693H10.4747C10.731 139.723 10.9909 139.696 11.2358 139.615C11.4808 139.534 11.705 139.4 11.8925 139.222C12.0801 139.045 12.2265 138.829 12.3213 138.589C12.4162 138.349 12.4573 138.091 12.4417 137.833C12.4417 136.544 11.6249 135.973 10.293 135.973H5.5113Z" fill="url(#paint3_linear_20_26)"/>
<path d="M32.3343 122.63C32.6791 122.611 33.0206 122.706 33.3053 122.902C33.59 123.097 33.8019 123.382 33.9079 123.71L40.8083 143.261C41.1418 144.22 40.7483 144.82 39.689 144.82H36.4509C36.1041 144.847 35.7589 144.751 35.4763 144.548C35.1938 144.345 34.9922 144.048 34.9073 143.711L33.9688 140.982H27.3101L26.3715 143.711C26.276 144.048 26.0675 144.342 25.7811 144.544C25.4946 144.746 25.1476 144.843 24.7979 144.82H21.529C20.4696 144.82 20.0762 144.22 20.4097 143.261L27.34 123.71C27.4395 123.384 27.6456 123.1 27.9254 122.904C28.2052 122.708 28.5426 122.612 28.8837 122.63H32.3343ZM32.6977 136.064L30.609 129.917L28.7029 136.064H32.6977Z" fill="url(#paint4_linear_20_26)"/>
<path d="M45.6926 144.82C45.5085 144.847 45.3205 144.831 45.1437 144.773C44.9668 144.715 44.8059 144.616 44.6737 144.485C44.5414 144.354 44.4415 144.194 44.3818 144.018C44.3222 143.842 44.3044 143.654 44.3298 143.47V123.98C44.3044 123.796 44.3222 123.608 44.3818 123.432C44.4415 123.255 44.5414 123.095 44.6737 122.964C44.8059 122.833 44.9668 122.735 45.1437 122.677C45.3205 122.619 45.5085 122.603 45.6926 122.63H48.2947C48.6231 122.623 48.9481 122.698 49.2393 122.85C49.5305 123.002 49.7785 123.226 49.9601 123.5L56.9513 133.545V123.98C56.9258 123.796 56.9436 123.608 57.0032 123.432C57.0628 123.256 57.1626 123.096 57.2948 122.965C57.4269 122.834 57.5877 122.735 57.7645 122.677C57.9413 122.619 58.1291 122.603 58.3132 122.63H61.3096C61.4937 122.603 61.6816 122.619 61.8583 122.677C62.0351 122.735 62.1959 122.834 62.328 122.965C62.4602 123.096 62.56 123.256 62.6196 123.432C62.6792 123.608 62.697 123.796 62.6715 123.98V143.47C62.697 143.654 62.6792 143.842 62.6196 144.018C62.56 144.194 62.4602 144.354 62.328 144.485C62.1959 144.616 62.0351 144.715 61.8583 144.773C61.6816 144.831 61.4937 144.847 61.3096 144.82H58.7066C58.3783 144.827 58.0535 144.751 57.7625 144.599C57.4715 144.447 57.2237 144.224 57.0422 143.95L50.0509 133.815V143.47C50.0764 143.654 50.0586 143.842 49.999 144.018C49.9394 144.194 49.8396 144.354 49.7074 144.485C49.5753 144.616 49.4145 144.715 49.2377 144.773C49.0609 144.831 48.8731 144.847 48.689 144.82L45.6926 144.82Z" fill="url(#paint5_linear_20_26)"/>
<path d="M78.6601 122.63C79.0049 122.611 79.3463 122.706 79.631 122.902C79.9158 123.097 80.1277 123.382 80.2337 123.71L87.135 143.261C87.4675 144.22 87.0741 144.82 86.0148 144.82H82.7758C82.4291 144.847 82.084 144.75 81.8017 144.547C81.5193 144.344 81.3179 144.048 81.233 143.711L80.2945 140.982H73.6358L72.6973 143.711C72.6017 144.048 72.3933 144.342 72.1068 144.544C71.8204 144.746 71.4733 144.843 71.1237 144.82H67.8547C66.7963 144.82 66.402 144.22 66.7354 143.261L73.6658 123.71C73.7652 123.384 73.9713 123.1 74.2512 122.904C74.531 122.708 74.8684 122.612 75.2094 122.63H78.6601ZM79.0235 136.064L76.9348 129.917L75.0277 136.064H79.0235Z" fill="url(#paint6_linear_20_26)"/>
<path d="M92.0184 144.82C91.8343 144.847 91.6464 144.831 91.4696 144.773C91.2928 144.715 91.132 144.616 90.9998 144.485C90.8676 144.354 90.7678 144.194 90.7082 144.018C90.6486 143.842 90.6309 143.654 90.6565 143.47V123.98C90.6309 123.796 90.6486 123.608 90.7082 123.432C90.7678 123.255 90.8676 123.096 90.9998 122.965C91.132 122.833 91.2928 122.735 91.4696 122.677C91.6464 122.619 91.8343 122.603 92.0184 122.63H94.6205C94.9489 122.623 95.2738 122.698 95.565 122.85C95.8562 123.002 96.1042 123.226 96.2858 123.5L103.277 133.545V123.98C103.252 123.796 103.269 123.608 103.329 123.432C103.388 123.255 103.488 123.096 103.62 122.965C103.753 122.833 103.913 122.735 104.09 122.677C104.267 122.619 104.455 122.603 104.639 122.63H107.635C107.82 122.603 108.007 122.619 108.184 122.677C108.361 122.735 108.522 122.834 108.654 122.965C108.786 123.096 108.886 123.256 108.945 123.432C109.005 123.608 109.023 123.796 108.997 123.98V143.47C109.023 143.654 109.005 143.842 108.945 144.018C108.886 144.194 108.786 144.354 108.654 144.485C108.522 144.616 108.361 144.715 108.184 144.773C108.007 144.831 107.82 144.847 107.635 144.82H105.032C104.704 144.827 104.379 144.751 104.088 144.599C103.797 144.447 103.549 144.224 103.368 143.95L96.3767 133.815V143.47C96.4022 143.654 96.3843 143.842 96.3247 144.018C96.265 144.194 96.1651 144.354 96.0328 144.485C95.9006 144.616 95.7397 144.715 95.5628 144.773C95.386 144.831 95.198 144.847 95.0139 144.82H92.0184Z" fill="url(#paint7_linear_20_26)"/>
<path d="M124.987 122.63C125.332 122.611 125.673 122.706 125.958 122.902C126.243 123.097 126.454 123.382 126.56 123.71L133.462 143.261C133.794 144.22 133.401 144.82 132.341 144.82H129.103C128.756 144.847 128.411 144.75 128.128 144.547C127.846 144.344 127.645 144.048 127.56 143.711L126.621 140.982H119.963L119.024 143.711C118.928 144.048 118.72 144.342 118.434 144.544C118.147 144.746 117.8 144.843 117.45 144.82H114.181C113.123 144.82 112.729 144.22 113.062 143.261L119.992 123.71C120.092 123.384 120.298 123.1 120.578 122.904C120.858 122.708 121.195 122.612 121.536 122.63H124.987ZM125.35 136.064L123.262 129.917L121.354 136.064H125.35Z" fill="url(#paint8_linear_20_26)"/>
<defs>
<linearGradient id="paint0_linear_20_26" x1="52.3236" y1="66.0304" x2="48.5345" y2="61.3498" gradientUnits="userSpaceOnUse">
<stop stop-color="#FFD700"/>
<stop offset="1" stop-color="#FCB415"/>
</linearGradient>
<linearGradient id="paint1_linear_20_26" x1="69.9893" y1="70.1844" x2="65.5183" y2="65.937" gradientUnits="userSpaceOnUse">
<stop stop-color="#FFD700"/>
<stop offset="1" stop-color="#FCB415"/>
</linearGradient>
<linearGradient id="paint2_linear_20_26" x1="95.2825" y1="66.6383" x2="92.0593" y2="66.2086" gradientUnits="userSpaceOnUse">
<stop stop-color="#FFD700"/>
<stop offset="1" stop-color="#FCB415"/>
</linearGradient>
<linearGradient id="paint3_linear_20_26" x1="0.0636812" y1="133.725" x2="18.1674" y2="133.725" gradientUnits="userSpaceOnUse">
<stop stop-color="#3F2000"/>
<stop offset="0.9448" stop-color="#3F2000"/>
</linearGradient>
<linearGradient id="paint4_linear_20_26" x1="20.2942" y1="133.725" x2="40.9238" y2="133.725" gradientUnits="userSpaceOnUse">
<stop stop-color="#3F2000"/>
<stop offset="0.9448" stop-color="#3F2000"/>
</linearGradient>
<linearGradient id="paint5_linear_20_26" x1="44.3298" y1="133.725" x2="62.6715" y2="133.725" gradientUnits="userSpaceOnUse">
<stop stop-color="#3F2000"/>
<stop offset="0.9448" stop-color="#3F2000"/>
</linearGradient>
<linearGradient id="paint6_linear_20_26" x1="66.6201" y1="133.725" x2="87.25" y2="133.725" gradientUnits="userSpaceOnUse">
<stop stop-color="#3F2000"/>
<stop offset="0.9448" stop-color="#3F2000"/>
</linearGradient>
<linearGradient id="paint7_linear_20_26" x1="90.6565" y1="133.725" x2="108.997" y2="133.725" gradientUnits="userSpaceOnUse">
<stop stop-color="#3F2000"/>
<stop offset="0.9448" stop-color="#3F2000"/>
</linearGradient>
<linearGradient id="paint8_linear_20_26" x1="112.947" y1="133.725" x2="133.577" y2="133.725" gradientUnits="userSpaceOnUse">
<stop stop-color="#3F2000"/>
<stop offset="0.9448" stop-color="#3F2000"/>
</linearGradient>
</defs>
</svg>
