<svg width="186" height="121" viewBox="0 0 186 121" fill="none" xmlns="http://www.w3.org/2000/svg">
<path d="M147.484 44.0475C143.46 44.0496 139.462 44.6862 135.637 45.9338C135.503 34.0026 130.717 22.5948 122.3 14.1378C113.883 5.68073 102.498 0.842094 90.5673 0.651367C78.6368 0.46064 67.1029 4.93287 58.4196 13.1165C49.7363 21.3002 44.589 32.5491 44.0732 44.47C38.8628 43.7269 33.5553 44.0648 28.4812 45.4625C23.4072 46.8603 18.6753 49.2881 14.5805 52.5945C10.4857 55.9009 7.11567 60.0151 4.6804 64.6809C2.24513 69.3467 0.796796 74.464 0.425639 79.7139C0.054481 84.9639 0.768431 90.2341 2.52305 95.196C4.27767 100.158 7.03535 104.705 10.6242 108.555C14.2131 112.405 18.5563 115.474 23.3833 117.572C28.2102 119.67 33.4175 120.751 38.6805 120.748H147.484C157.655 120.748 167.41 116.708 174.602 109.516C181.794 102.324 185.834 92.569 185.834 82.3978C185.834 72.2267 181.794 62.4722 174.602 55.2801C167.41 48.088 157.655 44.0475 147.484 44.0475Z" fill="white"/>
</svg>
