<svg width="117" height="76" viewBox="0 0 117 76" fill="none" xmlns="http://www.w3.org/2000/svg">
<path d="M92.7851 27.3522C90.2611 27.3536 87.7531 27.7529 85.3535 28.5355C85.2691 21.051 82.2675 13.895 76.9874 8.58989C71.7072 3.28481 64.5654 0.249538 57.0814 0.129896C49.5975 0.0102538 42.3622 2.81567 36.9152 7.94926C31.4682 13.0829 28.2393 20.1394 27.9157 27.6173C24.6473 27.1511 21.3179 27.363 18.1349 28.2398C14.9519 29.1166 11.9836 30.6395 9.41492 32.7136C6.84624 34.7877 4.7322 37.3686 3.20454 40.2955C1.67689 43.2223 0.768341 46.4324 0.535514 49.7257C0.302687 53.019 0.750566 56.325 1.85125 59.4376C2.95193 62.5503 4.68183 65.4029 6.93316 67.8178C9.18449 70.2326 11.909 72.158 14.937 73.4739C17.9649 74.7898 21.2314 75.4681 24.533 75.4664H92.7851C99.1655 75.4664 105.284 72.9318 109.796 68.4202C114.308 63.9087 116.842 57.7896 116.842 51.4093C116.842 45.029 114.308 38.91 109.796 34.3984C105.284 29.8868 99.1655 27.3522 92.7851 27.3522Z" fill="white"/>
</svg>
