<svg width="112" height="134" viewBox="0 0 112 134" fill="none" xmlns="http://www.w3.org/2000/svg">
<path d="M52.6645 20.4031C53.3562 20.4051 54.0448 20.4966 54.713 20.6754C53.5017 22.9006 52.8662 25.3935 52.8643 27.9271C52.8678 28.5643 52.9095 29.2007 52.9893 29.8329C50.8143 27.9553 48.2031 26.6533 45.3948 26.0461C45.8258 24.4416 46.7693 23.022 48.0816 22.0033C49.394 20.9846 51.0033 20.4227 52.6645 20.4031Z" fill="#D95D9B"/>
<path d="M68.5403 20.9154C70.0942 20.9006 71.6145 21.3675 72.8924 22.2517C74.1702 23.1359 75.1429 24.3941 75.6768 25.8534C76.2107 27.3128 76.2796 28.9016 75.874 30.4017C75.4685 31.9018 74.6083 33.2394 73.4118 34.2309C72.0491 33.743 70.6308 33.4271 69.1899 33.2904C68.6653 33.2409 68.1656 33.2162 67.641 33.1914C66.1186 33.1874 64.6011 33.3619 63.1193 33.7112C62.1987 32.7724 61.5407 31.6083 61.2109 30.3354C60.8812 29.0625 60.8913 27.7254 61.2403 26.4577C61.5893 25.1899 62.2649 24.036 63.1996 23.1112C64.1343 22.1864 65.2954 21.5231 66.5668 21.1877C67.2095 21.0089 67.8733 20.9173 68.5403 20.9154Z" fill="#8A4795"/>
<path d="M97.0944 41.6632C97.0839 43.3925 96.4804 45.0659 95.3846 46.4038C94.2888 47.7416 92.7672 48.663 91.0738 49.014C89.475 48.1477 85.531 48.2591 83.6574 48.0116C83.0828 45.2643 82.1804 42.8956 82.1804 39.7079C82.6689 37.9432 83.7784 36.4144 85.3048 35.403C86.8312 34.3915 88.6717 33.9656 90.4872 34.2036C92.3028 34.4416 93.9712 35.3276 95.1853 36.6983C96.3994 38.069 97.0774 39.8322 97.0944 41.6632Z" fill="#D95D9B"/>
<path d="M92.4821 60.9747C92.4726 62.6471 91.9081 64.2691 90.8772 65.586C89.8464 66.9029 88.4075 67.8404 86.7863 68.2512C86.1595 68.4217 85.5122 68.505 84.8627 68.4987C83.5991 68.4975 82.3555 68.1826 81.2436 67.5821C80.1318 66.9816 79.1864 66.1145 78.4924 65.0585C79.341 64.5805 80.1438 64.0254 80.8906 63.4002C81.5791 62.8413 82.2223 62.2289 82.8142 61.5687C84.5815 59.6769 85.8968 57.4091 86.6614 54.9357C86.8073 54.5595 86.9161 54.1699 86.9861 53.7725C88.5559 54.2206 89.939 55.1638 90.9293 56.4616C91.9196 57.7594 92.4643 59.3423 92.4821 60.9747Z" fill="#77318C"/>
<path d="M79.3314 76.221C78.7716 77.6319 77.8005 78.8418 76.5442 79.6936C75.2879 80.5454 73.8045 80.9998 72.2866 80.9977C70.4282 80.9977 64.7921 77.7308 64.7171 73.6718C66.5399 72.3062 68.0408 70.5574 69.1139 68.5485C69.3465 68.5691 69.5799 68.5774 69.8134 68.5732C70.289 68.5732 70.7643 68.5484 71.2374 68.499C72.8758 71.994 75.7633 74.7488 79.3314 76.221Z" fill="#77318C"/>
<path d="M25.2485 72.2668C25.2693 72.4144 25.2777 72.5634 25.2735 72.7123C25.2547 74.7142 24.4463 76.6276 23.0241 78.0365C21.6019 79.4454 19.681 80.2358 17.6791 80.2358C15.6772 80.2358 13.7562 79.4454 12.334 78.0365C10.9119 76.6276 10.1035 74.7142 10.0847 72.7123C10.0833 71.3002 10.4813 69.9165 11.2328 68.7209C11.9843 67.5254 13.0585 66.5667 14.3315 65.9556C15.6122 67.709 17.2445 69.176 19.1243 70.2628C21.0041 71.3495 23.0899 72.0321 25.2485 72.2668Z" fill="#8A4795"/>
<path d="M50.9027 74.2839C49.8535 77.1549 45.819 80.8303 42.5714 80.8303C41.5785 80.8354 40.5945 80.6447 39.6754 80.2692C38.7563 79.8938 37.9202 79.3408 37.2149 78.6421C36.5096 77.9433 35.949 77.1124 35.5649 76.1969C35.1809 75.2814 34.9811 74.2991 34.9769 73.3063C34.9719 72.9162 35.0054 72.5266 35.0768 72.1431C37.0897 71.0729 38.8391 69.5679 40.1981 67.7375C42.0218 71.648 46.7058 72.9969 50.9027 74.2839Z" fill="#77318C"/>
<path d="M55.2246 61.5687C56.2333 62.7843 57.4013 63.8582 58.697 64.7615C59.2732 65.2095 59.8925 65.5992 60.5457 65.9247C59.7786 66.781 58.8316 67.4571 57.7727 67.9047C57.5229 68.0037 57.2981 68.1028 57.0482 68.177C56.334 68.386 55.594 68.4943 54.8498 68.4987C52.8422 68.5033 50.9147 67.7109 49.4908 66.2956C48.0669 64.8802 47.2629 62.9576 47.2554 60.95C47.2513 60.7846 47.2596 60.6191 47.2804 60.455C48.3546 60.2294 49.4015 59.8892 50.4031 59.4402C51.3081 59.0719 52.1708 58.6072 52.9762 58.0542C53.5737 59.3163 54.3292 60.4972 55.2246 61.5687Z" fill="#77318C"/>
<path d="M35.7706 59.1675C35.783 59.1858 35.7897 59.2073 35.7897 59.2294C35.7897 59.2515 35.7831 59.2731 35.7706 59.2913C35.5863 60.494 35.1095 61.633 34.3821 62.6083C33.6546 63.5836 32.6989 64.3653 31.5987 64.8848C30.9246 65.2253 30.1985 65.4512 29.4502 65.5531C29.063 65.6239 28.6698 65.6571 28.2761 65.6521C26.3459 65.6586 24.4864 64.9264 23.0789 63.6056C21.6714 62.2848 20.8227 60.4755 20.7067 58.5488C20.6859 58.4013 20.6775 58.2523 20.6816 58.1033C20.6949 56.3452 21.321 54.6467 22.4518 53.3004C23.5827 51.9541 25.1476 51.0444 26.8771 50.7278C27.4853 51.9475 28.2313 53.0934 29.1005 54.1432C32.274 55.4559 33.9427 57.5813 35.7706 59.1675Z" fill="#D95D9B"/>
<path d="M50.0388 50.0222C49.049 51.2486 47.7852 52.2255 46.349 52.8746C44.9129 53.5237 43.3445 53.8268 41.7699 53.7594C41.5448 53.7759 41.3186 53.7676 41.0954 53.7347C40.902 53.7137 40.7101 53.6807 40.5208 53.6357C38.242 53.306 36.1438 52.2092 34.5723 50.5263C33.0009 48.8434 32.0502 46.6751 31.8771 44.3792C31.8355 43.8103 31.8439 43.2388 31.9021 42.6714C32.1046 40.645 32.914 38.7269 34.2244 37.168C35.5348 35.6092 37.2853 34.4823 39.2467 33.9346C40.1657 33.6767 41.1152 33.5434 42.0697 33.5386C42.3944 33.5386 42.7192 33.5386 43.0689 33.5634C45.7534 33.8318 48.2272 35.1371 49.9639 37.2016C51.1728 38.6468 51.9441 40.407 52.1873 42.2754C51.9875 42.6259 51.8122 42.9897 51.6627 43.3644C51.1624 44.3974 50.7851 45.4856 50.5384 46.6066C50.3141 47.4247 50.1636 48.2613 50.0888 49.1063C50.0638 49.4034 50.0388 49.7252 50.0388 50.0222Z" fill="url(#paint0_radial_20_61)"/>
<path d="M60.3307 43.9576C61.0871 43.0142 62.01 42.2173 63.0537 41.6064C64.6329 40.6661 66.4369 40.1702 68.2748 40.1709C68.5996 40.1709 68.9494 40.1956 69.2741 40.2204C71.0389 40.3897 72.7279 41.0214 74.1705 42.0519C74.2258 42.076 74.2766 42.1095 74.3204 42.1509C75.0067 42.6488 75.6277 43.2309 76.1691 43.8834C77.0578 44.9296 77.7135 46.1529 78.0927 47.4722C78.365 48.3792 78.4997 49.3219 78.4924 50.2689C78.4924 50.6154 78.4674 50.9619 78.4424 51.3084C78.4424 51.3827 78.4174 51.4322 78.4174 51.5064C78.1297 54.1206 76.8183 56.5145 74.7701 58.1642C74.6951 58.2137 74.6202 58.288 74.5452 58.3375C73.0404 59.4799 71.2525 60.1902 69.374 60.3917C69.0264 60.4411 68.6758 60.4658 68.3248 60.4659C67.975 60.4659 67.6503 60.4412 67.3005 60.4164C66.1182 60.307 64.9663 59.9798 63.903 59.4512C62.3686 58.7441 61.0375 57.6611 60.0331 56.3026C59.0287 54.944 58.3835 53.354 58.1572 51.6797C58.053 50.9003 58.0362 50.1116 58.1072 49.3284C58.2016 48.3695 58.4286 47.4283 58.7817 46.5317C59.1615 45.6062 59.6842 44.746 60.3306 43.9824L60.3307 43.9576Z" fill="#8A4795"/>
<path d="M109.735 24.2022C110.121 24.5458 110.435 24.9627 110.658 25.4288C110.881 25.8948 111.009 26.4006 111.034 26.9166C111.06 27.4326 110.982 27.9485 110.807 28.4343C110.631 28.9201 110.36 29.3661 110.01 29.7462C109.307 30.5269 108.323 30.9966 107.273 31.0523C106.224 31.108 105.196 30.7451 104.414 30.0432L94.7461 21.4054L91.5485 24.5239C94.5046 25.2971 97.1619 26.9367 99.1788 29.232C101.196 31.5273 102.48 34.3733 102.867 37.4042C103.254 40.4352 102.725 43.5126 101.349 46.2408C99.9734 48.969 97.813 51.2234 95.1459 52.7142C96.3854 54.9142 97.0621 57.3863 97.1159 59.9108C97.1698 62.4353 96.5991 64.934 95.4545 67.1848C94.3099 69.4355 92.6269 71.3686 90.5552 72.8123C88.4835 74.2559 86.0872 75.1652 83.5793 75.4595C82.7573 78.5903 80.9794 81.3867 78.4932 83.4593C76.007 85.5319 72.9362 86.7775 69.7087 87.0226C66.4812 87.2678 63.2575 86.5003 60.4868 84.8269C57.7161 83.1536 55.5362 80.6577 54.2508 77.687C53.2051 80.0911 51.5706 82.1929 49.4981 83.7985C47.4256 85.4041 44.9821 86.4616 42.393 86.8735C39.8039 87.2854 37.1528 87.0384 34.6844 86.1552C32.216 85.272 30.0099 83.7812 28.2698 81.8203C26.877 83.7526 25.0566 85.337 22.9506 86.4499C20.8446 87.5628 18.51 88.174 16.1289 88.236C13.7477 88.2979 11.3845 87.8089 9.22346 86.807C7.06246 85.8051 5.16215 84.3175 3.67079 82.4602C2.17944 80.6029 1.13737 78.4262 0.62587 76.0998C0.114373 73.7734 0.147272 71.3603 0.722031 69.0487C1.29679 66.7371 2.39786 64.5896 3.93932 62.7737C5.48078 60.9578 7.42095 59.5225 9.60847 58.58C9.55851 58.0355 9.53352 57.491 9.53352 56.9465C9.5516 53.4199 10.7795 50.0064 13.0121 47.2764C15.2447 44.5465 18.3467 42.6655 21.7995 41.9479C21.7537 41.2383 21.7705 40.5261 21.8495 39.8194C22.2398 36.0075 23.8322 32.4186 26.3963 29.5712C28.9605 26.7238 32.3637 24.7655 36.1141 23.9794C36.466 21.4512 37.4357 19.0486 38.9373 16.9843C40.4389 14.92 42.4262 13.2577 44.7232 12.1443C47.0202 11.0309 49.5563 10.5008 52.1069 10.6009C54.6576 10.701 57.1443 11.4282 59.3471 12.7181C61.7145 11.3181 64.4159 10.5828 67.1663 10.5897C70.658 10.5826 74.0499 11.7541 76.7928 13.9146C79.5358 16.0752 81.4693 19.0983 82.2803 22.4944L88.8255 16.1089L78.9078 7.27313C78.5201 6.92866 78.2045 6.51072 77.9794 6.04352C77.7542 5.57632 77.624 5.06914 77.5961 4.55127C77.5682 4.03341 77.6433 3.51516 77.817 3.02649C77.9907 2.53783 78.2595 2.08845 78.608 1.70435C79.3217 0.930503 80.3111 0.468231 81.3627 0.417299C82.4142 0.366368 83.4436 0.730831 84.2288 1.43207L109.735 24.2022ZM89.0253 46.7C90.3286 46.4116 91.5317 45.7818 92.5114 44.8751C93.491 43.9685 94.2119 42.8177 94.6002 41.5406C94.9884 40.2635 95.0301 38.9062 94.7208 37.6077C94.4116 36.3093 93.7626 35.1164 92.8404 34.1514C91.9182 33.1864 90.756 32.484 89.4728 32.1163C88.1897 31.7485 86.8319 31.7286 85.5385 32.0586C84.2451 32.3886 83.0628 33.0567 82.1127 33.9942C81.1626 34.9318 80.479 36.1051 80.1319 37.394C81.956 39.5902 83.2165 42.1984 83.8042 44.9923C85.6345 45.2366 87.4044 45.8154 89.0253 46.7ZM83.4794 67.4901C85.1006 67.0792 86.5395 66.1417 87.5704 64.8248C88.6012 63.5078 89.1657 61.8859 89.1752 60.2135C89.1574 58.5811 88.6127 56.9982 87.6224 55.7004C86.6321 54.4026 85.249 53.4594 83.6792 53.0112C83.6092 53.4087 83.5004 53.7983 83.3545 54.1745C82.5899 56.6479 81.2746 58.9157 79.5073 60.8075C78.9154 61.4677 78.2722 62.0801 77.5837 62.639C76.8369 63.2642 76.0341 63.8193 75.1855 64.2972C75.8795 65.3533 76.8249 66.2204 77.9367 66.8209C79.0486 67.4213 80.2922 67.7363 81.5558 67.7375C82.2053 67.7438 82.8526 67.6605 83.4794 67.4901ZM76.2097 49.7442C76.2347 49.3977 76.2598 49.0512 76.2598 48.7047C76.2671 47.7577 76.1324 46.815 75.86 45.908C75.4809 44.5887 74.8251 43.3654 73.9364 42.3192C73.3951 41.6667 72.774 41.0847 72.0878 40.5867C72.0439 40.5453 71.9932 40.5118 71.9379 40.4877C70.4953 39.4572 68.8063 38.8255 67.0415 38.6562C66.7167 38.6314 66.367 38.6067 66.0422 38.6067C64.2043 38.606 62.4003 39.1019 60.821 40.0422C59.7774 40.653 58.8545 41.45 58.098 42.3934V42.4182C57.4516 43.1817 56.929 44.042 56.5492 44.9675C56.1961 45.864 55.9691 46.8053 55.8746 47.7642C55.8036 48.5474 55.8204 49.336 55.9247 50.1155C56.1509 51.7898 56.7961 53.3798 57.8006 54.7383C58.805 56.0969 60.1361 57.1799 61.6705 57.887C62.7337 58.4156 63.8856 58.7428 65.0679 58.8522C65.4177 58.877 65.7425 58.9017 66.0922 58.9017C66.4433 58.9016 66.7939 58.8769 67.1414 58.8275C69.02 58.626 70.8079 57.9157 72.3126 56.7733C72.3876 56.7238 72.4625 56.6495 72.5375 56.6C74.5857 54.9503 75.8972 52.5564 76.1848 49.9422C76.1847 49.868 76.2097 49.8185 76.2097 49.7442ZM74.7608 25.9841C74.7439 23.9817 73.9361 22.0671 72.5135 20.6577C71.0909 19.2483 69.1689 18.4584 67.1664 18.4601C65.1703 18.4719 63.2586 19.267 61.8429 20.6742C60.4272 22.0814 59.6207 23.9882 59.5969 25.9841C59.5965 27.9547 60.3676 29.847 61.7453 31.2559C63.2271 30.9066 64.7447 30.7321 66.267 30.7361C66.7916 30.7609 67.2913 30.7857 67.8159 30.8352C69.2569 30.9718 70.6751 31.2878 72.0378 31.7757C72.8895 31.0698 73.575 30.1849 74.0457 29.1838C74.5163 28.1828 74.7605 27.0903 74.7608 25.9841ZM68.5404 79.1968C70.0582 79.1988 71.5416 78.7445 72.7979 77.8926C74.0542 77.0408 75.0253 75.8309 75.5852 74.42C72.0171 72.9478 69.1295 70.193 67.4911 66.6981C67.0181 66.7475 66.5428 66.7722 66.0671 66.7723C65.8337 66.7764 65.6002 66.7682 65.3676 66.7476C64.2945 68.7564 62.7936 70.5053 60.9709 71.8708C61.0238 73.8393 61.8459 75.7087 63.2609 77.0782C64.6759 78.4477 66.5712 79.2082 68.5404 79.1968ZM57.3236 64.5448C56.6704 64.2192 56.0511 63.8295 55.4749 63.3815C54.1791 62.4782 53.0111 61.4043 52.0024 60.1887C51.107 59.1172 50.3516 57.9363 49.7541 56.6742C48.9486 57.2272 48.0859 57.6919 47.181 58.0602C46.1794 58.5092 45.1325 58.8494 44.0582 59.075C44.0375 59.2391 44.0291 59.4046 44.0332 59.57C44.0407 61.5776 44.8447 63.5002 46.2687 64.9156C47.6926 66.3309 49.62 67.1233 51.6277 67.1187C52.3719 67.1143 53.1118 67.006 53.8261 66.797C54.0759 66.7227 54.3007 66.6237 54.5505 66.5247C55.6095 66.0771 56.5564 65.4011 57.3236 64.5448ZM53.4764 18.7324C52.8082 18.5536 52.1196 18.4621 51.4279 18.4601C49.7667 18.4797 48.1574 19.0416 46.845 20.0603C45.5327 21.079 44.5892 22.4987 44.1582 24.1032C46.9666 24.7104 49.5777 26.0124 51.7527 27.8899C51.6729 27.2577 51.6312 26.6213 51.6278 25.9841C51.6297 23.4506 52.2652 20.9576 53.4764 18.7324ZM49.5293 41.2797C49.6788 40.9051 49.8541 40.5412 50.0539 40.1907C49.8108 38.3223 49.0394 36.5621 47.8305 35.1169C46.0938 33.0525 43.62 31.7471 40.9356 31.4787C40.5858 31.454 40.2611 31.4539 39.9363 31.4539C38.9818 31.4588 38.0323 31.592 37.1134 31.85C35.1519 32.3976 33.4015 33.5245 32.091 35.0834C30.7806 36.6422 29.9712 38.5603 29.7688 40.5867C29.7105 41.1542 29.7021 41.7256 29.7438 42.2945C29.9168 44.5905 30.8675 46.7588 32.4389 48.4417C34.0104 50.1245 36.1086 51.2213 38.3874 51.551C38.5767 51.596 38.7686 51.6291 38.962 51.65C39.1852 51.683 39.4115 51.6912 39.6365 51.6747C41.2111 51.7421 42.7795 51.4391 44.2157 50.79C45.6518 50.1409 46.9156 49.1639 47.9054 47.9375C47.9054 47.6405 47.9305 47.3187 47.9555 47.0217C48.0303 46.1767 48.1808 45.3401 48.4051 44.522C48.6517 43.401 49.029 42.3128 49.5293 41.2797ZM39.9363 79.1968C41.4781 79.2036 42.9849 78.7375 44.2536 77.8612C45.5222 76.9849 46.4916 75.7407 47.0311 74.2963C44.9682 73.6679 43.0599 72.6142 41.4292 71.2032C39.7984 69.7922 38.4814 68.0552 37.563 66.1041C36.2041 67.9345 34.4547 69.4394 32.4418 70.5096C32.3703 70.8931 32.3368 71.2827 32.3418 71.6728C32.3461 72.6656 32.5459 73.6479 32.9299 74.5634C33.3139 75.479 33.8746 76.3099 34.5798 77.0086C35.2851 77.7074 36.1212 78.2603 37.0403 78.6357C37.9594 79.0112 38.9435 79.2019 39.9363 79.1968ZM32.5667 58.1345C32.5791 58.1163 32.5858 58.0947 32.5858 58.0726C32.5858 58.0506 32.5791 58.029 32.5667 58.0107C28.7044 56.3272 25.5565 53.3399 23.6732 49.571C21.9437 49.8876 20.3788 50.7974 19.2479 52.1436C18.117 53.4899 17.491 55.1884 17.4777 56.9465C17.4736 57.0955 17.482 57.2445 17.5027 57.392C17.6187 59.3187 18.4675 61.128 19.875 62.4488C21.2825 63.7696 23.142 64.5018 25.0722 64.4953C25.4658 64.5003 25.8591 64.4671 26.2463 64.3963C26.9946 64.2944 27.7207 64.0685 28.3948 63.728C29.495 63.2085 30.4508 62.4268 31.1782 61.4515C31.9056 60.4762 32.3824 59.3372 32.5667 58.1345ZM23.3984 72.7123C23.4026 72.5633 23.3942 72.4143 23.3734 72.2668C21.2148 72.032 19.129 71.3494 17.2492 70.2627C15.3694 69.176 13.737 67.709 12.4564 65.9555C11.1834 66.5666 10.1091 67.5253 9.35765 68.7209C8.60619 69.9165 8.20817 71.3002 8.20952 72.7123C8.22832 74.7141 9.03672 76.6275 10.4589 78.0364C11.8811 79.4453 13.802 80.2357 15.8039 80.2357C17.8058 80.2357 19.7268 79.4453 21.149 78.0364C22.5712 76.6275 23.3796 74.7141 23.3984 72.7123Z" fill="#3F2000"/>
<path d="M66.6917 46.6999C66.6959 47.1455 66.5675 47.5822 66.323 47.9547C66.0785 48.3272 65.7288 48.6187 65.3183 48.7921C64.9078 48.9654 64.4551 49.013 64.0176 48.9286C63.58 48.8442 63.1775 48.6317 62.8609 48.3181C62.5444 48.0045 62.3281 47.6039 62.2397 47.1672C62.1512 46.7305 62.1945 46.2773 62.3641 45.8652C62.5336 45.4532 62.8218 45.1008 63.192 44.8528C63.5622 44.6048 63.9978 44.4724 64.4434 44.4724C65.0347 44.4769 65.6008 44.7124 66.0209 45.1285C66.441 45.5447 66.6817 46.1086 66.6917 46.6999Z" fill="white"/>
<path d="M64.4434 48.9522C64.8855 48.9506 65.3172 48.8181 65.6842 48.5715C66.0512 48.3249 66.3369 47.9752 66.5055 47.5665C66.6741 47.1578 66.718 46.7083 66.6316 46.2747C66.5452 45.8411 66.3325 45.4428 66.0201 45.1299C65.7077 44.817 65.3098 44.6035 64.8763 44.5164C64.4429 44.4292 63.9933 44.4723 63.5843 44.6402C63.1753 44.8081 62.8252 45.0933 62.5779 45.4598C62.3307 45.8263 62.1975 46.2579 62.195 46.7C62.1986 47.2955 62.4365 47.8658 62.8573 48.2873C63.278 48.7088 63.8478 48.9476 64.4434 48.9522ZM64.4434 41.9975C65.6938 41.9875 66.897 42.4748 67.7883 43.352C68.6795 44.2291 69.1858 45.4244 69.1957 46.6749C69.2057 47.9254 68.7184 49.1286 67.8413 50.0198C66.9641 50.911 65.7688 51.4173 64.5183 51.4273H64.4434C63.2235 51.4293 62.0502 50.9587 61.1698 50.1142C60.2895 49.2697 59.7705 48.1169 59.7218 46.898V46.8733C59.7013 46.8179 59.6928 46.7588 59.6968 46.7C59.6995 46.0795 59.8243 45.4656 60.0643 44.8933C60.3044 44.3211 60.6548 43.8018 61.0956 43.3651C61.5364 42.9284 62.0589 42.5828 62.6334 42.3482C63.2078 42.1135 63.8229 41.9943 64.4434 41.9975Z" fill="#3F2000"/>
<path d="M38.0377 37.1217C38.4774 37.1258 38.906 37.2599 39.2696 37.5072C39.6332 37.7544 39.9155 38.1037 40.0809 38.5111C40.2463 38.9185 40.2875 39.3657 40.1992 39.7965C40.1109 40.2272 39.8971 40.6222 39.5847 40.9317C39.2724 41.2411 38.8755 41.4512 38.4439 41.5355C38.0124 41.6198 37.5655 41.5744 37.1597 41.4052C36.7539 41.236 36.4072 40.9505 36.1633 40.5846C35.9195 40.2187 35.7894 39.7889 35.7894 39.3492C35.7895 39.055 35.8479 38.7636 35.9612 38.4921C36.0745 38.2205 36.2405 37.9741 36.4495 37.7671C36.6585 37.56 36.9065 37.3963 37.179 37.2855C37.4516 37.1748 37.7435 37.1191 38.0377 37.1217Z" fill="white"/>
<path d="M40.286 39.349C40.2902 38.9035 40.1618 38.4667 39.9173 38.0942C39.6728 37.7217 39.3231 37.4303 38.9126 37.2569C38.5021 37.0835 38.0494 37.036 37.6119 37.1203C37.1744 37.2047 36.7718 37.4172 36.4552 37.7308C36.1387 38.0444 35.9225 38.445 35.834 38.8818C35.7455 39.3185 35.7888 39.7716 35.9584 40.1837C36.128 40.5958 36.4161 40.9482 36.7863 41.1961C37.1565 41.4441 37.5921 41.5766 38.0377 41.5766C38.3319 41.5792 38.6238 41.5235 38.8964 41.4127C39.1689 41.3019 39.4169 41.1383 39.6259 40.9312C39.8349 40.7241 40.0009 40.4777 40.1142 40.2062C40.2275 39.9346 40.2859 39.6433 40.286 39.349ZM42.7093 38.7055C42.7603 38.9162 42.7854 39.1323 42.7842 39.349C42.793 40.2897 42.5221 41.2118 42.0058 41.9981C41.4896 42.7845 40.7513 43.3999 39.8848 43.7659C39.0182 44.132 38.0625 44.2323 37.1388 44.0541C36.2151 43.876 35.3652 43.4274 34.6969 42.7653C34.0287 42.1032 33.5722 41.2575 33.3854 40.3356C33.1987 39.4136 33.2901 38.4569 33.6481 37.587C34.006 36.7171 34.6144 35.9731 35.396 35.4496C36.1775 34.926 37.097 34.6465 38.0377 34.6465C38.2564 34.6453 38.4744 34.6703 38.6872 34.7208C39.7063 34.8404 40.6561 35.2977 41.385 36.0199C42.114 36.7421 42.5802 37.6876 42.7093 38.7055Z" fill="#3F2000"/>
<path d="M13.6702 133.868C10.5628 133.868 7.58161 132.639 5.37695 130.449C4.28705 129.382 3.42065 128.109 2.82834 126.703C2.23603 125.298 1.9297 123.788 1.92722 122.263C1.92951 120.729 2.23554 119.211 2.82764 117.796C3.41973 116.381 4.28615 115.097 5.37695 114.018C7.58499 111.837 10.5667 110.619 13.6702 110.63C15.1939 110.615 16.7057 110.901 18.1185 111.472C19.5313 112.042 20.8173 112.887 21.9025 113.957C22.0482 114.077 22.1628 114.231 22.2366 114.405C22.3104 114.578 22.3411 114.768 22.3262 114.956C22.3113 115.144 22.2513 115.326 22.1511 115.486C22.0509 115.646 21.9136 115.78 21.7508 115.876L19.3604 117.736C18.6635 118.306 18.1493 118.216 17.4534 117.646C16.3939 116.759 15.0518 116.28 13.6702 116.297C12.0738 116.29 10.5396 116.915 9.40277 118.036C8.84451 118.589 8.40181 119.248 8.10046 119.973C7.79911 120.699 7.64513 121.477 7.64746 122.263C7.65416 123.866 8.28357 125.404 9.40277 126.551C9.94949 127.138 10.6095 127.608 11.343 127.933C12.0765 128.257 12.8682 128.43 13.6702 128.44C14.7042 128.466 15.7301 128.251 16.6666 127.812C17.1848 127.567 17.6481 127.22 18.0284 126.791V125.352H14.3052C14.1211 125.379 13.9333 125.363 13.7565 125.305C13.5797 125.247 13.4189 125.149 13.2868 125.018C13.1546 124.887 13.0548 124.727 12.9952 124.55C12.9356 124.374 12.9178 124.186 12.9433 124.002V122.144C12.9178 121.96 12.9356 121.772 12.9952 121.596C13.0548 121.42 13.1546 121.26 13.2868 121.129C13.4189 120.998 13.5797 120.899 13.7565 120.841C13.9333 120.783 14.1211 120.767 14.3052 120.794H22.3867C22.5708 120.767 22.7587 120.783 22.9354 120.841C23.1122 120.899 23.273 120.998 23.4052 121.129C23.5373 121.26 23.6371 121.42 23.6967 121.596C23.7564 121.772 23.7741 121.96 23.7486 122.144V127.57C23.7732 128.095 23.6471 128.615 23.3852 129.07C21.4482 131.979 18.2701 133.868 13.6702 133.868Z" fill="url(#paint1_linear_20_61)"/>
<path d="M46.277 118.455C46.3057 119.539 46.0925 120.615 45.6527 121.606C45.2129 122.597 44.5577 123.477 43.7348 124.182C43.5428 124.35 43.3293 124.491 43.0998 124.602C42.9754 124.644 42.854 124.694 42.7363 124.753L45.7627 131.799C46.1561 132.728 45.7627 133.358 44.7034 133.358H41.3744C41.0346 133.373 40.6988 133.279 40.4158 133.091C40.1329 132.902 39.9174 132.628 39.8008 132.308L37.137 125.442H34.3832V132.008C34.4087 132.192 34.3909 132.38 34.3313 132.556C34.2717 132.732 34.1719 132.892 34.0397 133.023C33.9076 133.154 33.7468 133.253 33.57 133.311C33.3932 133.369 33.2054 133.385 33.0213 133.358H30.0249C29.8407 133.385 29.6528 133.369 29.476 133.311C29.2991 133.253 29.1382 133.154 29.0059 133.023C28.8737 132.892 28.7738 132.733 28.7141 132.556C28.6544 132.38 28.6366 132.192 28.6621 132.008V112.518C28.6366 112.334 28.6544 112.146 28.7141 111.97C28.7738 111.793 28.8737 111.633 29.0059 111.502C29.1382 111.371 29.2991 111.273 29.476 111.215C29.6528 111.157 29.8407 111.141 30.0249 111.168H39.2258C40.9913 111.115 42.7147 111.713 44.0683 112.848C44.6923 113.446 45.1956 114.159 45.551 114.947C46.0331 116.054 46.2803 117.248 46.277 118.455ZM40.7384 118.455C40.7604 118.211 40.7287 117.964 40.6453 117.733C40.562 117.502 40.4292 117.292 40.2562 117.118C40.0831 116.944 39.8741 116.81 39.6437 116.725C39.4132 116.64 39.167 116.606 38.9223 116.627H34.3832V120.344H38.7106C38.9691 120.359 39.2278 120.321 39.4714 120.233C39.7149 120.145 39.9381 120.009 40.1275 119.833C40.317 119.656 40.4688 119.443 40.5738 119.206C40.6788 118.97 40.7348 118.714 40.7384 118.455Z" fill="url(#paint2_linear_20_61)"/>
<path d="M61.1462 111.168C61.491 111.149 61.8324 111.245 62.1171 111.44C62.4018 111.635 62.6138 111.92 62.7198 112.248L69.6211 131.799C69.9536 132.758 69.5593 133.358 68.5 133.358H65.2619C64.9152 133.385 64.5702 133.288 64.2878 133.085C64.0055 132.883 63.804 132.586 63.7192 132.249L62.7807 129.52H56.1219L55.1834 132.249C55.0878 132.586 54.8794 132.88 54.593 133.082C54.3065 133.284 53.9594 133.381 53.6098 133.358H50.3408C49.2824 133.358 48.8881 132.758 49.2215 131.799L56.1519 112.248C56.2514 111.922 56.4574 111.638 56.7373 111.442C57.0171 111.246 57.3545 111.15 57.6955 111.168H61.1462ZM61.5096 124.602L59.4209 118.456L57.5139 124.602H61.5096Z" fill="url(#paint3_linear_20_61)"/>
<path d="M90.4831 118.455C90.5119 119.539 90.2986 120.615 89.8589 121.606C89.4191 122.597 88.7639 123.477 87.941 124.182C86.4958 125.271 84.726 125.842 82.9168 125.802H78.5885V132.008C78.6141 132.192 78.5965 132.38 78.537 132.556C78.4775 132.732 78.3778 132.892 78.2457 133.023C78.1136 133.154 77.9528 133.253 77.7761 133.311C77.5993 133.369 77.4115 133.385 77.2274 133.358H74.2311C74.0469 133.385 73.859 133.369 73.6821 133.311C73.5053 133.253 73.3443 133.154 73.2121 133.023C73.0799 132.892 72.98 132.733 72.9203 132.556C72.8606 132.38 72.8428 132.192 72.8682 132.008V112.518C72.8428 112.334 72.8606 112.146 72.9203 111.97C72.98 111.793 73.0799 111.633 73.2121 111.502C73.3443 111.371 73.5053 111.273 73.6821 111.215C73.859 111.157 74.0469 111.141 74.2311 111.168H83.431C85.1966 111.115 86.9201 111.713 88.2735 112.848C88.8981 113.446 89.4021 114.159 89.7581 114.947C90.2398 116.054 90.4867 117.248 90.4831 118.455ZM84.9755 118.455C84.9939 118.209 84.9587 117.962 84.8721 117.73C84.7856 117.499 84.65 117.289 84.4744 117.115C84.2989 116.941 84.0878 116.807 83.8555 116.723C83.6233 116.639 83.3756 116.606 83.1294 116.627H78.5885V120.344H82.9168C83.1769 120.359 83.4374 120.322 83.6829 120.235C83.9284 120.148 84.1539 120.012 84.3459 119.836C84.538 119.659 84.6926 119.447 84.8008 119.209C84.9089 118.972 84.9684 118.716 84.9755 118.455Z" fill="url(#paint4_linear_20_61)"/>
<path d="M99.3905 124.872V127.691H108.016C108.2 127.664 108.388 127.68 108.565 127.738C108.741 127.796 108.902 127.895 109.034 128.026C109.166 128.157 109.266 128.317 109.325 128.493C109.385 128.669 109.403 128.857 109.377 129.041V132.008C109.403 132.192 109.385 132.38 109.325 132.556C109.266 132.732 109.166 132.892 109.034 133.023C108.902 133.154 108.741 133.253 108.565 133.311C108.388 133.369 108.2 133.385 108.016 133.358H95.0313C94.8472 133.385 94.6594 133.369 94.4826 133.311C94.3059 133.253 94.1451 133.155 94.013 133.024C93.881 132.892 93.7812 132.733 93.7217 132.556C93.6622 132.38 93.6446 132.192 93.6703 132.008V112.519C93.6446 112.334 93.6622 112.147 93.7217 111.97C93.7812 111.794 93.881 111.634 94.013 111.503C94.1451 111.372 94.3059 111.273 94.4826 111.215C94.6594 111.157 94.8472 111.141 95.0313 111.168H108.016C108.2 111.141 108.388 111.158 108.565 111.216C108.741 111.274 108.902 111.372 109.034 111.503C109.166 111.634 109.266 111.794 109.325 111.97C109.385 112.147 109.403 112.334 109.377 112.519V115.487C109.403 115.671 109.385 115.859 109.325 116.035C109.266 116.211 109.166 116.371 109.034 116.502C108.902 116.632 108.741 116.731 108.564 116.789C108.388 116.847 108.2 116.863 108.016 116.835H99.3905V119.624H105.745C105.929 119.597 106.117 119.613 106.294 119.671C106.471 119.729 106.632 119.827 106.764 119.958C106.896 120.089 106.996 120.249 107.056 120.426C107.115 120.602 107.133 120.79 107.108 120.974V123.523C107.133 123.708 107.115 123.895 107.055 124.071C106.995 124.248 106.895 124.407 106.763 124.538C106.631 124.669 106.47 124.767 106.293 124.825C106.117 124.883 105.929 124.899 105.745 124.872H99.3905Z" fill="url(#paint5_linear_20_61)"/>
<defs>
<radialGradient id="paint0_radial_20_61" cx="0" cy="0" r="1" gradientUnits="userSpaceOnUse" gradientTransform="translate(39.1059 41.3823) scale(10.1895 10.095)">
<stop stop-color="#885A9E"/>
<stop offset="1" stop-color="#885A9E"/>
</radialGradient>
<linearGradient id="paint1_linear_20_61" x1="1.92722" y1="122.249" x2="23.7487" y2="122.249" gradientUnits="userSpaceOnUse">
<stop stop-color="#3F2000"/>
<stop offset="0.9448" stop-color="#3F2000"/>
</linearGradient>
<linearGradient id="paint2_linear_20_61" x1="28.6621" y1="122.263" x2="46.277" y2="122.263" gradientUnits="userSpaceOnUse">
<stop stop-color="#3F2000"/>
<stop offset="0.9448" stop-color="#3F2000"/>
</linearGradient>
<linearGradient id="paint3_linear_20_61" x1="49.1062" y1="122.263" x2="69.7359" y2="122.263" gradientUnits="userSpaceOnUse">
<stop stop-color="#3F2000"/>
<stop offset="0.9448" stop-color="#3F2000"/>
</linearGradient>
<linearGradient id="paint4_linear_20_61" x1="72.8682" y1="122.263" x2="90.4831" y2="122.263" gradientUnits="userSpaceOnUse">
<stop stop-color="#3F2000"/>
<stop offset="0.9448" stop-color="#3F2000"/>
</linearGradient>
<linearGradient id="paint5_linear_20_61" x1="93.6703" y1="122.263" x2="109.377" y2="122.263" gradientUnits="userSpaceOnUse">
<stop stop-color="#3F2000"/>
<stop offset="0.9448" stop-color="#3F2000"/>
</linearGradient>
</defs>
</svg>
