<svg width="105" height="154" viewBox="0 0 105 154" fill="none" xmlns="http://www.w3.org/2000/svg">
<path d="M58.2951 23.0259L58.814 23.5854L60.5877 21.9766C63.8603 21.9023 68.0072 21.2094 70.9302 18.7344C74.1778 15.9624 75.5268 11.4331 76.0264 8.09186L78.2748 6.06232L78.0865 5.85645C71.7284 11.1815 64.3688 15.7738 58.2951 23.0259Z" fill="#1C6F28"/>
<path d="M78.0865 5.85657L76.601 4.23096L74.1028 6.48315C70.7803 6.50792 66.3335 7.12668 63.2358 9.7254C59.8133 12.5965 58.5642 17.4474 58.0895 20.863L57.1152 21.754L58.2951 23.0261C64.3689 15.774 71.7284 11.1817 78.0865 5.85657Z" fill="#8BC53F"/>
<path d="M70.3555 35.0199C66.6525 35.0072 62.9811 35.7009 59.538 37.0638C59.4942 37.0809 59.4566 37.1109 59.4301 37.1498C59.4037 37.1888 59.3896 37.2349 59.3898 37.2819C59.3916 37.5702 59.3794 37.866 59.374 38.1582C59.3804 37.8125 59.3923 37.4639 59.3885 37.1237C59.3579 34.045 58.8523 30.9896 57.8896 28.0652C62.2864 28.2879 69.6561 27.8424 74.9521 23.3874C82.7964 16.7296 82.5216 4.25559 82.5216 3.73579C82.4992 3.03095 82.2369 2.35488 81.7781 1.81934C81.3193 1.2838 80.6915 0.920889 79.9985 0.790596C79.4988 0.716336 67.058 -1.56073 59.2387 5.07233C54.9668 8.68585 53.0932 14.0071 52.2688 18.1899C49.9499 15.4515 47.0928 13.219 43.8749 11.6311C42.6777 11.0714 41.308 11.007 40.0636 11.452C38.8192 11.8969 37.8007 12.8152 37.2298 14.0071C36.9514 14.5962 36.7925 15.2348 36.7625 15.8857C36.7325 16.5367 36.8319 17.1871 37.0549 17.7994C37.278 18.4117 37.6203 18.9736 38.062 19.4527C38.5036 19.9318 39.0359 20.3186 39.6281 20.5906C39.7529 20.6649 50.3202 25.7386 49.3209 39.2769C49.0712 39.1036 48.7963 38.9799 48.5465 38.8314C44.1357 36.3094 39.138 34.9947 34.0572 35.0199C29.5275 34.9787 25.0507 35.9951 20.9828 37.9882C16.915 39.9813 13.3684 42.8961 10.625 46.5008C7.88163 50.1055 6.01724 54.3006 5.18012 58.7524C4.34299 63.2043 4.55622 67.7901 5.80286 72.145C9.99976 95.5337 48.4715 117.141 50.1204 118.056C50.7576 118.413 51.4759 118.601 52.2064 118.601C52.9368 118.601 53.655 118.413 54.2923 118.056C55.5021 117.384 76.5171 105.568 89.2844 90.0856C89.5566 89.7537 89.7576 89.3691 89.8746 88.9561C89.9915 88.543 90.0221 88.1102 89.9642 87.6848C89.9064 87.2594 89.7614 86.8506 89.5385 86.4837C89.3155 86.1169 89.0192 85.7999 88.6682 85.5527C88.2417 85.2576 87.8049 84.9726 87.3578 84.6979C86.5215 84.1643 85.5219 83.9476 84.5398 84.087C83.5576 84.2264 82.6578 84.7127 82.0031 85.458C73.3602 95.5906 60.0431 104.787 52.3035 109.354C52.2706 109.374 52.2326 109.385 52.1939 109.385C52.1552 109.385 52.1172 109.374 52.0843 109.354C40.6246 102.578 16.7617 85.635 14.2467 70.5114C14.2169 70.3356 14.1751 70.1619 14.1216 69.9918C13.5368 68.0916 13.2421 66.1141 13.2474 64.126C13.2899 60.514 14.2707 56.975 16.0936 53.8563C17.9164 50.7377 20.5187 48.1464 23.6451 46.3369C26.7715 44.5273 30.3146 43.5616 33.9269 43.5345C37.5391 43.5074 41.0963 44.4198 44.2496 46.1823C44.7654 46.4602 45.2658 46.7659 45.7486 47.098C45.8427 47.1383 45.9276 47.1972 45.9984 47.2711C47.12 48.044 48.1582 48.9315 49.0961 49.9194C49.2533 50.0803 49.4295 50.2216 49.6207 50.3402C53.9925 54.82 58.7141 63.0122 54.0425 75.3625C53.8413 75.8852 53.7464 76.4428 53.7634 77.0026C53.7805 77.5624 53.909 78.1132 54.1417 78.6226C54.3744 79.1321 54.7065 79.5899 55.1184 79.9694C55.5304 80.3488 56.0139 80.6422 56.5407 80.8323C57.0189 81.016 57.5273 81.1083 58.0396 81.1046C58.9121 81.1053 59.7642 80.8405 60.4826 80.3454C61.201 79.8503 61.7518 79.1483 62.0616 78.3326C67.1118 65.0151 63.7231 54.5896 58.4349 47.5379C58.4159 47.5127 58.4022 47.4839 58.3947 47.4533C58.3872 47.4226 58.3861 47.3907 58.3914 47.3596C58.3967 47.3285 58.4082 47.2988 58.4254 47.2723C58.4426 47.2458 58.465 47.2231 58.4913 47.2056C61.6043 45.0647 65.2405 43.8096 69.0113 43.5744C72.7821 43.3392 76.5461 44.1326 79.9011 45.87C83.2561 47.6074 86.0761 50.2234 88.0601 53.4388C90.044 56.6541 91.1173 60.3481 91.1653 64.1259C91.2113 65.4816 91.0738 66.8372 90.7568 68.156C90.3018 69.7877 89.6331 72.2116 91.3346 73.3577C92.6389 74.3187 94.1571 74.9484 95.7587 75.1926C96.3624 75.2665 96.9715 75.1058 97.4601 74.7437C97.9487 74.3815 98.2796 73.8455 98.3845 73.2465C98.4685 72.8799 98.5436 72.5128 98.6098 72.145C99.8564 67.7901 100.07 63.2043 99.2326 58.7524C98.3955 54.3006 96.5311 50.1055 93.7877 46.5008C91.0444 42.8961 87.4977 39.9814 83.4298 37.9883C79.362 35.9952 74.8852 34.9787 70.3555 35.0199ZM76.0264 8.0918C75.5267 11.4331 74.1777 15.9624 70.9301 18.7344C68.0073 21.2094 63.8603 21.9024 60.5877 21.9767L76.0264 8.0918ZM63.2358 9.72535C66.3335 7.12662 70.7802 6.50783 74.1028 6.4831L58.0895 20.8629C58.5641 17.4474 59.8132 12.5964 63.2358 9.72535Z" fill="#3F2000"/>
<path d="M39.753 62.1214C40.0632 61.6032 40.5663 61.2293 41.152 61.0819C41.4428 60.9942 41.7488 60.9687 42.0501 61.0071C42.3513 61.0455 42.6412 61.1468 42.9007 61.3046C43.4196 61.6044 43.804 62.0916 43.9749 62.6659C44.0531 62.9565 44.0712 63.26 44.0283 63.5579C43.9853 63.8557 43.8822 64.1417 43.7251 64.3984C43.4202 64.9216 42.9213 65.3033 42.3367 65.4609C41.752 65.6184 41.1288 65.539 40.6024 65.2399C40.082 64.9302 39.6982 64.4351 39.5281 63.8539C39.376 63.2691 39.4566 62.648 39.753 62.1214Z" fill="white"/>
<path d="M41.1519 61.0817C40.5663 61.2291 40.0631 61.603 39.753 62.1212C39.4566 62.6478 39.376 63.2688 39.5281 63.8537C39.6982 64.4348 40.082 64.9301 40.6023 65.2397C41.1288 65.5389 41.752 65.6183 42.3366 65.4607C42.9213 65.3032 43.4202 64.9214 43.7251 64.3982C43.8822 64.1415 43.9853 63.8555 44.0282 63.5577C44.0712 63.2598 44.0531 62.9563 43.9749 62.6657C43.8039 62.0913 43.4195 61.6043 42.9007 61.3045C42.6412 61.1467 42.3513 61.0452 42.05 61.0069C41.7487 60.9685 41.4427 60.994 41.1519 61.0817ZM37.1299 64.4972C36.9579 63.8986 36.9113 63.2708 36.9929 62.6533C37.0746 62.0358 37.2828 61.4418 37.6046 60.9084V60.8837C38.2493 59.7931 39.2972 58.9999 40.522 58.6757C41.7468 58.3515 43.0499 58.5223 44.1497 59.1512C45.2415 59.7764 46.041 60.8087 46.3731 62.0222C46.5398 62.6256 46.5837 63.2564 46.5022 63.877C46.4206 64.4977 46.2153 65.0958 45.8985 65.6357C45.4743 66.3588 44.8684 66.9585 44.141 67.3753C43.4135 67.7921 42.5898 68.0114 41.7514 68.0117C40.7029 68.0112 39.6834 67.6674 38.8488 67.0327C38.0142 66.398 37.4105 65.5075 37.1299 64.4972Z" fill="#3F2000"/>
<path d="M30.3348 62.1461C28.8729 62.4748 27.3403 62.2116 26.0718 61.414C24.8034 60.6163 23.9021 59.3491 23.5649 57.8891C23.405 57.1647 23.3901 56.4158 23.5211 55.6857C23.6522 54.9556 23.9265 54.2586 24.3283 53.635C24.7301 53.0114 25.2514 52.4736 25.8622 52.0525C26.4729 51.6315 27.161 51.3356 27.8867 51.1819C28.2883 51.0918 28.6993 51.0502 29.1108 51.0581C30.1874 51.0582 31.2428 51.3581 32.1586 51.9243C32.7856 52.32 33.3273 52.8369 33.752 53.4446C34.1767 54.0524 34.4758 54.7388 34.6318 55.4636C34.7974 56.1832 34.8164 56.9288 34.6876 57.656C34.5589 58.3831 34.285 59.0768 33.8823 59.6958C33.4835 60.3194 32.9643 60.8573 32.3552 61.278C31.7461 61.6987 31.0593 61.9938 30.3348 62.1461Z" fill="white"/>
<path d="M23.5648 57.8889C23.902 59.3489 24.8033 60.6161 26.0718 61.4138C27.3402 62.2114 28.8729 62.4746 30.3348 62.1459C31.0592 61.9936 31.7461 61.6985 32.3551 61.2778C32.9642 60.8571 33.4833 60.3192 33.8822 59.6956C34.2848 59.0766 34.5588 58.3829 34.6875 57.6558C34.8163 56.9286 34.7972 56.183 34.6316 55.4634C34.4757 54.7385 34.1766 54.0521 33.7519 53.4443C33.3272 52.8366 32.7855 52.3197 32.1585 51.9241C31.2427 51.3579 30.1874 51.0579 29.1107 51.0579C28.6992 51.05 28.2882 51.0915 27.8866 51.1816C27.1609 51.3353 26.4728 51.6313 25.862 52.0523C25.2513 52.4734 24.73 53.0112 24.3282 53.6348C23.9264 54.2583 23.6521 54.9553 23.521 55.6855C23.39 56.4156 23.4049 57.1645 23.5648 57.8889ZM29.1108 64.7694C27.1032 64.7908 25.1592 64.0656 23.6563 62.7343C22.1534 61.4031 21.1988 59.5609 20.9778 57.5654C20.7567 55.5699 21.285 53.5634 22.4602 51.9355C23.6353 50.3077 25.3734 49.1745 27.337 48.7561C27.9196 48.6278 28.5142 48.5614 29.1108 48.5581C30.6679 48.5675 32.1911 49.0134 33.5075 49.8451C35.3236 50.9962 36.6084 52.8211 37.0799 54.9189C37.3129 55.9597 37.3358 57.0366 37.147 58.0864C36.9583 59.1361 36.5617 60.1376 35.9807 61.0321C34.8062 62.8401 32.966 64.1119 30.8595 64.5714C30.2851 64.6983 29.699 64.7647 29.1108 64.7694Z" fill="#3F2000"/>
<path d="M64.7534 44.3337C62.4418 44.959 60.2551 45.9778 58.2894 47.3455C60.9321 50.7601 62.8051 54.7059 63.7798 58.9123C64.7546 63.1186 64.8081 67.486 63.9367 71.715C67.9471 62.588 66.5631 53.4608 64.7534 44.3337Z" fill="#C8284B"/>
<path d="M85.0073 55.6143C84.115 50.9654 81.9473 46.4397 77.5447 44.8276C73.445 43.2919 68.9593 43.1187 64.7534 44.3338C66.5631 53.4608 67.9471 62.588 63.9367 71.7151C63.5067 73.9716 62.8793 76.186 62.0616 78.3327C61.7518 79.1483 61.201 79.8504 60.4826 80.3455C59.7642 80.8407 58.9121 81.1054 58.0396 81.1046C57.5273 81.1084 57.0189 81.016 56.5407 80.8324C56.0139 80.6423 55.5304 80.3489 55.1184 79.9694C54.7065 79.59 54.3745 79.1322 54.1418 78.6227C53.9091 78.1133 53.7805 77.5625 53.7634 77.0027C53.7464 76.4428 53.8413 75.8853 54.0425 75.3626C58.7141 63.0124 53.9925 54.8201 49.6207 50.3404C49.4295 50.2217 49.2534 50.0804 49.0961 49.9195C48.1582 48.9316 47.12 48.0441 45.9984 47.2712C45.9276 47.1973 45.8427 47.1384 45.7486 47.0981C45.2489 46.7516 44.7493 46.4546 44.1748 46.1081C41.0162 44.3754 37.4632 43.4892 33.8609 43.5357C30.2587 43.5821 26.7297 44.5596 23.6169 46.3731C20.5041 48.1866 17.9133 50.7745 16.0963 53.8853C14.2793 56.9961 13.2979 60.5239 13.2474 64.1261C13.2421 66.1142 13.5369 68.0918 14.1217 69.9919C14.1752 70.1621 14.2169 70.3357 14.2467 70.5116C16.5389 84.2953 35.0669 98.6182 47.2732 106.35C58.8515 99.0746 69.8761 91.7036 78.0272 81.6376C82.502 76.2127 85.1221 69.4973 85.5035 62.4753C85.5963 60.1769 85.4298 57.8754 85.0073 55.6143ZM30.8594 64.5716C30.285 64.6985 29.699 64.7648 29.1107 64.7695C27.1032 64.7909 25.1592 64.0656 23.6564 62.7343C22.1535 61.4031 21.199 59.5609 20.978 57.5655C20.757 55.57 21.2853 53.5636 22.4604 51.9358C23.6355 50.3079 25.3735 49.1748 27.3371 48.7563C27.9197 48.628 28.5142 48.5617 29.1107 48.5583C30.6679 48.5677 32.1911 49.0136 33.5075 49.8454C35.3236 50.9964 36.6085 52.8213 37.0798 54.9191C37.3129 55.9599 37.3357 57.0368 37.147 58.0866C36.9582 59.1364 36.5617 60.138 35.9807 61.0324C34.8061 62.8404 32.9659 64.1122 30.8594 64.5716ZM45.8984 65.6359C45.4742 66.359 44.8684 66.9586 44.1409 67.3754C43.4135 67.7922 42.5898 68.0115 41.7514 68.0117C40.7029 68.0113 39.6834 67.6675 38.8488 67.0328C38.0142 66.3981 37.4105 65.5076 37.1299 64.4973C36.9579 63.8986 36.9112 63.2709 36.9929 62.6534C37.0745 62.0359 37.2828 61.4419 37.6046 60.9085V60.8838C38.2493 59.7931 39.2972 59 40.522 58.6758C41.7467 58.3516 43.0499 58.5225 44.1497 59.1514C45.2415 59.7765 46.041 60.8089 46.3731 62.0223C46.5398 62.6257 46.5837 63.2565 46.5021 63.8772C46.4206 64.4979 46.2153 65.096 45.8984 65.6359Z" fill="url(#paint0_radial_20_83)"/>
<path d="M19.1925 81.6243C18.5582 80.4636 17.861 79.3384 17.104 78.2537C15.5999 75.5393 14.4689 72.6343 13.7417 69.6175C12.799 65.4691 13.0701 61.1372 14.5225 57.1388C15.975 53.1403 18.5473 49.6443 21.9326 47.0681C28.5804 42.0509 36.9347 42.5731 44.1745 46.1079C37.3598 42.7807 29.1101 44.4674 23.4312 49.22C17.388 54.2775 15.8017 61.7903 16.3108 69.3162C16.6222 73.5443 17.5946 77.6974 19.1925 81.6243Z" fill="white"/>
<path d="M17.9124 138.486C17.9412 139.57 17.7279 140.646 17.2881 141.637C16.8484 142.627 16.1932 143.508 15.3703 144.213C13.9251 145.302 12.1553 145.873 10.3461 145.833H6.01769V152.039C6.04315 152.223 6.02537 152.411 5.96569 152.587C5.906 152.763 5.80611 152.923 5.67388 153.054C5.54165 153.185 5.38071 153.284 5.20385 153.342C5.02699 153.4 4.83904 153.416 4.6549 153.389H1.6585C1.47447 153.416 1.28671 153.399 1.11004 153.341C0.93336 153.283 0.772657 153.185 0.640614 153.054C0.508571 152.923 0.408778 152.763 0.349232 152.587C0.289686 152.41 0.272019 152.223 0.297535 152.039V132.549C0.272019 132.365 0.289686 132.177 0.349232 132.001C0.408778 131.825 0.508571 131.665 0.640614 131.534C0.772657 131.403 0.93336 131.304 1.11004 131.246C1.28671 131.188 1.47447 131.172 1.6585 131.199H10.8603C12.6259 131.146 14.3493 131.744 15.7028 132.879C16.3268 133.477 16.8301 134.19 17.1855 134.978C17.6679 136.084 17.9154 137.279 17.9124 138.486ZM12.403 138.486C12.4216 138.24 12.3864 137.992 12.2999 137.761C12.2135 137.529 12.0778 137.319 11.9023 137.146C11.7267 136.972 11.5155 136.838 11.2832 136.754C11.0509 136.669 10.803 136.636 10.5568 136.657H6.01769V140.375H10.346C10.606 140.39 10.8665 140.353 11.1119 140.266C11.3573 140.178 11.5826 140.042 11.7745 139.866C11.9663 139.69 12.1208 139.477 12.2288 139.24C12.3368 139.003 12.3961 138.747 12.403 138.486Z" fill="url(#paint1_linear_20_83)"/>
<path d="M26.8197 144.902V147.721H35.4455C35.6295 147.695 35.8173 147.711 35.9939 147.769C36.1706 147.827 36.3314 147.925 36.4634 148.056C36.5955 148.187 36.6952 148.347 36.7547 148.524C36.8143 148.7 36.832 148.887 36.8065 149.072V152.038C36.832 152.223 36.8143 152.41 36.7547 152.587C36.6952 152.763 36.5955 152.923 36.4634 153.054C36.3314 153.185 36.1706 153.283 35.9939 153.341C35.8173 153.399 35.6295 153.416 35.4455 153.389H22.4605C22.2765 153.416 22.0887 153.4 21.9119 153.342C21.7352 153.284 21.5744 153.185 21.4423 153.054C21.3102 152.923 21.2105 152.763 21.151 152.587C21.0915 152.41 21.0739 152.223 21.0995 152.038V132.549C21.0739 132.365 21.0915 132.177 21.151 132.001C21.2105 131.825 21.3102 131.664 21.4423 131.533C21.5744 131.402 21.7352 131.304 21.9119 131.246C22.0887 131.188 22.2765 131.172 22.4605 131.199H35.4455C35.6295 131.172 35.8173 131.188 35.994 131.246C36.1707 131.304 36.3314 131.403 36.4634 131.534C36.5955 131.665 36.6952 131.825 36.7547 132.001C36.8143 132.177 36.832 132.365 36.8065 132.549V135.518C36.832 135.702 36.8142 135.889 36.7546 136.065C36.695 136.242 36.5952 136.401 36.4632 136.532C36.3311 136.663 36.1704 136.761 35.9938 136.819C35.8171 136.877 35.6294 136.893 35.4455 136.866H26.8197V139.655H33.1741C33.3583 139.627 33.5462 139.643 33.7231 139.702C33.8999 139.76 34.0609 139.858 34.1931 139.989C34.3253 140.12 34.4252 140.28 34.4849 140.456C34.5446 140.633 34.5624 140.82 34.5369 141.005V143.554C34.5622 143.738 34.5443 143.926 34.4845 144.102C34.4247 144.278 34.3247 144.438 34.1925 144.569C34.0603 144.699 33.8994 144.798 33.7227 144.856C33.5459 144.914 33.3581 144.93 33.1741 144.902H26.8197Z" fill="url(#paint2_linear_20_83)"/>
<path d="M52.5225 131.199C52.8673 131.18 53.2087 131.275 53.4934 131.471C53.778 131.666 53.99 131.95 54.0961 132.279L60.9974 151.83C61.33 152.789 60.9356 153.389 59.8763 153.389H56.6383C56.2916 153.416 55.9465 153.319 55.6641 153.116C55.3818 152.913 55.1804 152.617 55.0955 152.28L54.1561 149.551H47.4982L46.5588 152.28C46.4634 152.617 46.2549 152.911 45.9685 153.113C45.682 153.315 45.3349 153.412 44.9852 153.389H41.7163C40.6587 153.389 40.2644 152.789 40.5969 151.83L47.5273 132.279C47.627 131.952 47.8333 131.668 48.1132 131.472C48.3932 131.277 48.7307 131.18 49.0718 131.199H52.5225ZM52.8859 144.632L50.7963 138.486L48.8901 144.632H52.8859Z" fill="url(#paint3_linear_20_83)"/>
<path d="M74.0515 153.958C70.9338 153.966 67.9401 152.737 65.7274 150.541C64.6344 149.464 63.7665 148.18 63.1741 146.764C62.5817 145.349 62.2767 143.829 62.2767 142.295C62.2767 140.76 62.5817 139.241 63.1741 137.825C63.7665 136.41 64.6344 135.126 65.7274 134.049C67.9393 131.869 70.9169 130.642 74.0226 130.63C77.1282 130.619 80.1149 131.824 82.3428 133.988C82.4892 134.106 82.604 134.258 82.677 134.432C82.75 134.605 82.7789 134.794 82.761 134.981C82.7432 135.168 82.6793 135.348 82.5749 135.505C82.4705 135.661 82.3289 135.789 82.1629 135.878L79.7716 137.736C79.0757 138.306 78.5596 138.216 77.8637 137.646C76.7953 136.754 75.4426 136.276 74.0515 136.297C72.451 136.302 70.917 136.938 69.7831 138.067C69.2179 138.617 68.7685 139.274 68.4617 140C68.1549 140.726 67.9969 141.506 67.9969 142.295C67.9969 143.083 68.1549 143.863 68.4617 144.59C68.7685 145.316 69.2179 145.973 69.7831 146.523C70.9208 147.643 72.455 148.268 74.0515 148.262C75.391 148.282 76.6959 147.836 77.7438 147.002C77.8665 146.869 78.0141 146.763 78.1782 146.688C78.3423 146.614 78.5196 146.573 78.6998 146.567C78.88 146.562 79.0595 146.592 79.2279 146.656C79.3963 146.721 79.5502 146.818 79.6807 146.942L82.0103 148.892C82.1753 148.988 82.3137 149.124 82.4128 149.287C82.5119 149.45 82.5685 149.636 82.5776 149.827C82.5866 150.017 82.5478 150.207 82.4645 150.379C82.3813 150.551 82.2564 150.7 82.1011 150.811C79.9179 152.849 77.038 153.975 74.0515 153.958Z" fill="url(#paint4_linear_20_83)"/>
<path d="M104.115 152.039C104.141 152.223 104.123 152.411 104.063 152.587C104.003 152.763 103.904 152.923 103.771 153.054C103.639 153.185 103.478 153.284 103.301 153.342C103.124 153.4 102.936 153.416 102.752 153.389H99.756C99.5719 153.416 99.384 153.4 99.2073 153.342C99.0305 153.284 98.8697 153.185 98.7377 153.054C98.6056 152.923 98.5059 152.763 98.4464 152.587C98.3869 152.411 98.3693 152.223 98.3949 152.039V145.144H92.1896V152.039C92.2151 152.223 92.1974 152.41 92.1379 152.587C92.0783 152.763 91.9785 152.923 91.8465 153.054C91.7144 153.185 91.5537 153.283 91.3771 153.341C91.2004 153.399 91.0126 153.416 90.8286 153.389H87.8322C87.6481 153.416 87.4601 153.4 87.2833 153.342C87.1064 153.284 86.9455 153.185 86.8132 153.054C86.681 152.923 86.5811 152.763 86.5214 152.587C86.4617 152.411 86.4439 152.223 86.4694 152.039V132.549C86.4439 132.365 86.4617 132.177 86.5214 132.001C86.5811 131.824 86.681 131.664 86.8132 131.533C86.9455 131.402 87.1064 131.304 87.2833 131.246C87.4601 131.188 87.6481 131.172 87.8322 131.199H90.8286C91.0126 131.172 91.2004 131.188 91.3771 131.246C91.5537 131.304 91.7144 131.403 91.8465 131.534C91.9785 131.665 92.0783 131.825 92.1379 132.001C92.1974 132.177 92.2151 132.365 92.1896 132.549V139.446H98.3949V132.549C98.3693 132.365 98.3869 132.177 98.4464 132.001C98.5059 131.825 98.6056 131.665 98.7377 131.534C98.8697 131.403 99.0305 131.304 99.2073 131.246C99.384 131.188 99.5719 131.172 99.756 131.199H102.752C102.936 131.172 103.124 131.188 103.301 131.246C103.478 131.304 103.639 131.402 103.771 131.533C103.904 131.664 104.003 131.824 104.063 132.001C104.123 132.177 104.141 132.365 104.115 132.549V152.039Z" fill="url(#paint5_linear_20_83)"/>
<defs>
<radialGradient id="paint0_radial_20_83" cx="0" cy="0" r="1" gradientUnits="userSpaceOnUse" gradientTransform="translate(49.3875 74.9437) scale(33.9935 33.6784)">
<stop stop-color="#EF5B71"/>
<stop offset="0.66464" stop-color="#EB5A72"/>
</radialGradient>
<linearGradient id="paint1_linear_20_83" x1="0.297525" y1="142.294" x2="17.9124" y2="142.294" gradientUnits="userSpaceOnUse">
<stop stop-color="#3F2000"/>
<stop offset="0.9448" stop-color="#3F2000"/>
</linearGradient>
<linearGradient id="paint2_linear_20_83" x1="21.0995" y1="142.294" x2="36.8065" y2="142.294" gradientUnits="userSpaceOnUse">
<stop stop-color="#3F2000"/>
<stop offset="0.9448" stop-color="#3F2000"/>
</linearGradient>
<linearGradient id="paint3_linear_20_83" x1="40.4821" y1="142.294" x2="61.1123" y2="142.294" gradientUnits="userSpaceOnUse">
<stop stop-color="#3F2000"/>
<stop offset="0.9448" stop-color="#3F2000"/>
</linearGradient>
<linearGradient id="paint4_linear_20_83" x1="62.2767" y1="142.294" x2="82.7682" y2="142.294" gradientUnits="userSpaceOnUse">
<stop stop-color="#3F2000"/>
<stop offset="0.9448" stop-color="#3F2000"/>
</linearGradient>
<linearGradient id="paint5_linear_20_83" x1="86.4694" y1="142.294" x2="104.115" y2="142.294" gradientUnits="userSpaceOnUse">
<stop stop-color="#3F2000"/>
<stop offset="0.9448" stop-color="#3F2000"/>
</linearGradient>
</defs>
</svg>
