<svg width="112" height="163" viewBox="0 0 112 163" fill="none" xmlns="http://www.w3.org/2000/svg">
<path d="M89.1978 71.549L88.2485 69.668C77.4065 76.7466 66.8892 79.2462 57.546 79.2462C47.7967 79.131 38.2189 76.6661 29.6252 72.0606C28.7934 74.2523 28.6353 76.6425 29.1713 78.9246C34.9251 82.3676 44.2782 85.7061 56.097 85.7061C75.7826 85.7061 89.1978 76.3753 89.3477 72.6133L89.3727 72.3163C89.3829 72.0496 89.3226 71.7849 89.1978 71.549Z" fill="#5BB947"/>
<path d="M61.7554 11.5301L88.9854 65.4852C61.2807 84.1715 36.6488 68.282 31.8023 64.7427L58.6577 11.5301C58.805 11.2466 59.0274 11.009 59.3005 10.8431C59.5736 10.6773 59.887 10.5896 60.2065 10.5896C60.526 10.5896 60.8394 10.6773 61.1125 10.8431C61.3857 11.009 61.6081 11.2466 61.7554 11.5301Z" fill="#EC1A3D"/>
<path d="M27.6929 62.243C32.5393 65.7822 57.1713 81.6718 84.876 62.9855L57.6459 9.03033C57.4986 8.74683 57.2762 8.50922 57.0031 8.34338C56.7299 8.17754 56.4166 8.08984 56.097 8.08984C55.7775 8.08984 55.4642 8.17754 55.191 8.34338C54.9179 8.50922 54.6955 8.74683 54.5482 9.03033L27.6929 62.243ZM89.3727 72.3163C89.3829 72.0496 89.3226 71.7849 89.1978 71.549L88.2485 69.668C77.4065 76.7465 66.8892 79.2463 57.546 79.2463C41.6077 79.2463 29.1418 72.143 24.3203 68.9255L22.9963 71.5491C22.8688 71.7929 22.8085 72.0662 22.8215 72.3411V72.8361C23.421 76.4001 36.3616 85.7061 56.0971 85.7061C75.7827 85.7061 89.1978 76.3753 89.3477 72.6133L89.3727 72.3163ZM96.8672 72.143V72.8113L96.8172 73.2073C96.2926 83.3548 76.557 93.1311 56.097 93.1311C35.1373 93.1311 15.3019 83.1321 15.3019 72.5886L15.3269 72.044C15.3446 70.7063 15.6785 69.3918 16.3012 68.2078L47.8281 5.71387C48.609 4.19339 49.7939 2.91761 51.2527 2.02686C52.7116 1.1361 54.3878 0.664795 56.097 0.664795C57.8063 0.664795 59.4825 1.1361 60.9413 2.02686C62.4002 2.91761 63.5851 4.19339 64.366 5.71387L95.8929 68.2078C96.5132 69.4282 96.8465 70.7742 96.8672 72.143Z" fill="#3F2000"/>
<path d="M70.0868 55.7832V49.5709C70.0893 49.2415 70.2221 48.9264 70.4561 48.6945C70.6902 48.4627 71.0064 48.3328 71.3359 48.3334C71.4996 48.331 71.6622 48.3613 71.814 48.4226C71.9659 48.4838 72.104 48.5747 72.2203 48.6899C72.3366 48.8051 72.4288 48.9424 72.4914 49.0936C72.554 49.2449 72.5858 49.4072 72.585 49.5709V55.7832C72.5825 56.1127 72.4497 56.4277 72.2157 56.6596C71.9817 56.8914 71.6653 57.0213 71.3359 57.0207C71.0077 57.017 70.6939 56.8858 70.4608 56.6549C70.2276 56.4239 70.0935 56.1113 70.0868 55.7832Z" fill="#3F2000"/>
<path d="M60.3939 38.9037V32.7162C60.397 32.3869 60.5299 32.0722 60.7639 31.8405C60.9978 31.6088 61.3137 31.4788 61.643 31.4788C61.9723 31.4788 62.2882 31.6088 62.5221 31.8405C62.756 32.0722 62.889 32.3869 62.8921 32.7162V38.9037C62.889 39.2329 62.756 39.5477 62.5221 39.7794C62.2882 40.0111 61.9723 40.1411 61.643 40.1411C61.3137 40.1411 60.9978 40.0111 60.7639 39.7794C60.5299 39.5477 60.397 39.2329 60.3939 38.9037Z" fill="#3F2000"/>
<path d="M61.643 66.3268C61.4793 66.3292 61.3167 66.2989 61.1649 66.2377C61.013 66.1765 60.8749 66.0856 60.7586 65.9704C60.6422 65.8552 60.5501 65.7179 60.4875 65.5666C60.4249 65.4153 60.3931 65.2531 60.3939 65.0894V58.8771C60.397 58.5478 60.53 58.2331 60.7639 58.0013C60.9978 57.7696 61.3138 57.6396 61.643 57.6396C61.9723 57.6396 62.2882 57.7696 62.5221 58.0013C62.756 58.2331 62.889 58.5478 62.8921 58.8771V65.0894C62.893 65.2531 62.8611 65.4153 62.7985 65.5666C62.7359 65.7179 62.6437 65.8552 62.5274 65.9704C62.4111 66.0856 62.273 66.1765 62.1211 66.2377C61.9693 66.2989 61.8067 66.3292 61.643 66.3268Z" fill="#3F2000"/>
<path d="M52.9993 29.0778V22.8903C53.0024 22.561 53.1353 22.2463 53.3693 22.0146C53.6032 21.7829 53.9192 21.6528 54.2484 21.6528C54.5777 21.6528 54.8936 21.7829 55.1275 22.0146C55.3614 22.2463 55.4944 22.561 55.4975 22.8903V29.0778C55.4944 29.4071 55.3614 29.7218 55.1275 29.9535C54.8936 30.1852 54.5777 30.3152 54.2484 30.3152C53.9192 30.3152 53.6032 30.1852 53.3693 29.9535C53.1353 29.7218 53.0024 29.4071 52.9993 29.0778Z" fill="#3F2000"/>
<path d="M52.9993 46.3534C53.0024 46.0241 53.1353 45.7095 53.3693 45.4777C53.6032 45.246 53.9192 45.116 54.2484 45.116C54.5777 45.116 54.8936 45.246 55.1275 45.4777C55.3614 45.7095 55.4944 46.0241 55.4975 46.3534V52.541C55.4944 52.8702 55.3614 53.1849 55.1275 53.4166C54.8936 53.6484 54.5777 53.7783 54.2484 53.7783C53.9192 53.7783 53.6032 53.6484 53.3693 53.4166C53.1353 53.1849 53.0024 52.8702 52.9993 52.541V46.3534Z" fill="#3F2000"/>
<path d="M47.3284 43.2597C46.999 43.2603 46.6826 43.1305 46.4486 42.8986C46.2146 42.6667 46.0818 42.3517 46.0793 42.0222V35.8099C46.0824 35.4807 46.2154 35.166 46.4493 34.9343C46.6832 34.7025 46.9992 34.5725 47.3284 34.5725C47.6577 34.5725 47.9737 34.7025 48.2076 34.9343C48.4415 35.166 48.5744 35.4807 48.5775 35.8099V42.0222C48.575 42.3517 48.4423 42.6667 48.2083 42.8986C47.9742 43.1305 47.6579 43.2603 47.3284 43.2597Z" fill="#3F2000"/>
<path d="M39.809 54.1993C39.812 53.8701 39.945 53.5554 40.179 53.3237C40.4129 53.0919 40.7288 52.9619 41.058 52.9619C41.3873 52.9619 41.7033 53.0919 41.9372 53.3237C42.1711 53.5554 42.304 53.8701 42.3071 54.1993V60.3868C42.304 60.7161 42.1711 61.0308 41.9372 61.2625C41.7033 61.4942 41.3873 61.6243 41.058 61.6243C40.7288 61.6243 40.4129 61.4942 40.179 61.2625C39.945 61.0308 39.812 60.7161 39.809 60.3868V54.1993Z" fill="#3F2000"/>
<path d="M6.74605 132.848C6.38839 132.881 6.03204 132.774 5.75069 132.551C5.46934 132.328 5.28446 132.005 5.23421 131.649L0.905898 112.099C0.693298 111.17 1.14759 110.63 2.1161 110.63H5.20332C5.56131 110.597 5.91818 110.703 6.19997 110.927C6.48175 111.15 6.66684 111.473 6.71693 111.829L8.80482 121.574L11.4978 111.769C11.5662 111.427 11.7583 111.121 12.0374 110.911C12.3165 110.701 12.6632 110.601 13.0114 110.63H16.3112C16.6594 110.601 17.0061 110.701 17.2852 110.911C17.5643 111.121 17.7564 111.427 17.8248 111.769L20.5178 121.514L22.6056 111.829C22.6557 111.473 22.8408 111.15 23.1226 110.927C23.4044 110.703 23.7613 110.597 24.1193 110.63H27.1756C28.1441 110.63 28.5984 111.17 28.3876 112.099L24.0884 131.649C24.0381 132.005 23.8532 132.328 23.5719 132.551C23.2905 132.774 22.9342 132.881 22.5766 132.848H19.0641C18.7162 132.877 18.3698 132.777 18.091 132.567C17.8121 132.357 17.6204 132.051 17.5523 131.709L14.6759 121.275L11.8012 131.709C11.7181 132.049 11.5181 132.35 11.2362 132.558C10.9543 132.766 10.6083 132.869 10.2585 132.848H6.74605Z" fill="url(#paint0_linear_20_99)"/>
<path d="M40.4131 110.659C40.7579 110.639 41.0994 110.735 41.3841 110.93C41.6689 111.126 41.8808 111.41 41.9867 111.739L48.888 131.289C49.2205 132.249 48.8279 132.849 47.7686 132.849H44.5306C44.1836 132.876 43.8382 132.779 43.5555 132.576C43.2728 132.374 43.0711 132.077 42.9861 131.74L42.0484 129.01H35.3888L34.4512 131.74C34.3555 132.077 34.147 132.371 33.8606 132.573C33.5742 132.774 33.2272 132.872 32.8775 132.849H29.6086C28.5493 132.849 28.1549 132.249 28.4892 131.289L35.4197 111.739C35.5189 111.412 35.7248 111.128 36.0045 110.932C36.2842 110.737 36.6215 110.64 36.9624 110.659L40.4131 110.659ZM40.7765 124.092L38.6886 117.946L36.7825 124.092H40.7765Z" fill="url(#paint1_linear_20_99)"/>
<path d="M56.4634 132.849C56.2794 132.876 56.0915 132.86 55.9148 132.802C55.738 132.744 55.5772 132.645 55.4452 132.514C55.3131 132.383 55.2133 132.223 55.1538 132.047C55.0944 131.87 55.0767 131.683 55.1024 131.499V116.326H50.4416C50.2575 116.353 50.0697 116.338 49.8929 116.28C49.716 116.222 49.5551 116.124 49.4228 115.993C49.2906 115.862 49.1906 115.702 49.1309 115.526C49.0712 115.35 49.0533 115.162 49.0787 114.978V112.009C49.0532 111.825 49.0711 111.637 49.1308 111.461C49.1905 111.284 49.2904 111.124 49.4226 110.993C49.5548 110.862 49.7158 110.764 49.8926 110.706C50.0695 110.648 50.2574 110.632 50.4416 110.659H65.4834C65.6674 110.632 65.8552 110.648 66.0319 110.706C66.2086 110.764 66.3693 110.863 66.5013 110.994C66.6334 111.125 66.7331 111.285 66.7926 111.461C66.8522 111.637 66.8699 111.825 66.8444 112.009V114.978C66.8699 115.162 66.8521 115.349 66.7925 115.525C66.7329 115.702 66.6331 115.861 66.5011 115.992C66.369 116.123 66.2083 116.221 66.0317 116.279C65.855 116.337 65.6673 116.353 65.4834 116.326H60.8226V131.498C60.8481 131.683 60.8302 131.871 60.7705 132.047C60.7109 132.223 60.611 132.383 60.4787 132.514C60.3465 132.645 60.1856 132.744 60.0087 132.802C59.8318 132.86 59.6439 132.876 59.4598 132.849H56.4634Z" fill="url(#paint2_linear_20_99)"/>
<path d="M76.7803 124.362V127.181H85.406C85.5901 127.154 85.7781 127.17 85.9549 127.228C86.1318 127.286 86.2927 127.385 86.425 127.516C86.5572 127.647 86.6571 127.807 86.7168 127.983C86.7765 128.159 86.7943 128.347 86.7688 128.532V131.499C86.7943 131.683 86.7765 131.871 86.7168 132.047C86.6571 132.223 86.5572 132.383 86.425 132.514C86.2927 132.645 86.1318 132.744 85.9549 132.802C85.7781 132.86 85.5901 132.876 85.406 132.849H72.4229C72.2388 132.876 72.0508 132.86 71.874 132.802C71.6971 132.744 71.5362 132.645 71.404 132.514C71.2717 132.383 71.1718 132.223 71.1121 132.047C71.0524 131.871 71.0346 131.683 71.0601 131.499V112.009C71.0346 111.825 71.0524 111.637 71.1121 111.461C71.1718 111.284 71.2717 111.124 71.404 110.993C71.5362 110.862 71.6971 110.764 71.874 110.706C72.0508 110.648 72.2388 110.632 72.4229 110.659H85.406C85.5901 110.632 85.7781 110.648 85.9549 110.706C86.1318 110.764 86.2927 110.862 86.425 110.993C86.5572 111.124 86.6571 111.284 86.7168 111.461C86.7765 111.637 86.7943 111.825 86.7688 112.009V114.978C86.7943 115.162 86.7764 115.35 86.7167 115.526C86.6569 115.702 86.557 115.862 86.4247 115.993C86.2925 116.124 86.1316 116.222 85.9548 116.28C85.7779 116.338 85.59 116.353 85.406 116.326H76.7803V119.115H83.1365C83.3205 119.087 83.5084 119.104 83.6851 119.162C83.8619 119.22 84.0226 119.318 84.1547 119.449C84.2868 119.58 84.3865 119.74 84.446 119.917C84.5055 120.093 84.5232 120.281 84.4975 120.465V123.014C84.523 123.198 84.5052 123.386 84.4456 123.562C84.386 123.738 84.2862 123.898 84.1542 124.028C84.0221 124.159 83.8614 124.258 83.6847 124.316C83.5081 124.373 83.3204 124.39 83.1365 124.362H76.7803Z" fill="url(#paint3_linear_20_99)"/>
<path d="M109.355 117.946C109.384 119.03 109.171 120.106 108.731 121.097C108.291 122.087 107.636 122.967 106.813 123.673C106.621 123.841 106.407 123.982 106.177 124.092C106.053 124.135 105.931 124.185 105.814 124.244L108.841 131.29C109.233 132.219 108.841 132.849 107.782 132.849H104.453C104.113 132.864 103.777 132.771 103.494 132.582C103.211 132.393 102.996 132.119 102.879 131.799L100.215 124.933H97.4606V131.498C97.4861 131.683 97.4684 131.87 97.4089 132.047C97.3493 132.223 97.2495 132.383 97.1175 132.514C96.9854 132.645 96.8247 132.743 96.6481 132.801C96.4714 132.859 96.2836 132.876 96.0996 132.849H93.1032C92.9191 132.876 92.7311 132.86 92.5542 132.802C92.3774 132.744 92.2165 132.645 92.0843 132.514C91.952 132.383 91.8521 132.223 91.7924 132.047C91.7327 131.871 91.7149 131.683 91.7404 131.498V112.009C91.7149 111.825 91.7327 111.637 91.7924 111.461C91.8521 111.284 91.952 111.124 92.0843 110.993C92.2165 110.862 92.3774 110.764 92.5542 110.706C92.7311 110.648 92.9191 110.632 93.1032 110.659H102.303C104.069 110.606 105.792 111.203 107.146 112.338C107.77 112.936 108.274 113.649 108.628 114.438C109.111 115.544 109.358 116.739 109.355 117.946ZM103.817 117.946C103.839 117.702 103.807 117.455 103.723 117.224C103.64 116.993 103.507 116.783 103.334 116.609C103.161 116.434 102.952 116.3 102.721 116.215C102.491 116.13 102.244 116.097 102 116.117H97.4606V119.835H101.789C102.047 119.85 102.306 119.812 102.55 119.724C102.793 119.636 103.016 119.5 103.206 119.323C103.395 119.147 103.547 118.934 103.652 118.697C103.757 118.461 103.813 118.205 103.817 117.946Z" fill="url(#paint4_linear_20_99)"/>
<path d="M0.573341 141.504C0.54767 141.32 0.565302 141.132 0.624794 140.956C0.684285 140.78 0.783975 140.62 0.916054 140.489C1.04813 140.358 1.20897 140.259 1.38572 140.201C1.56247 140.143 1.75031 140.127 1.93436 140.154H4.47642C4.81676 140.136 5.15414 140.225 5.44169 140.408C5.72924 140.591 5.95267 140.859 6.08091 141.175L11.8919 153.618L17.7339 141.175C17.8619 140.859 18.085 140.591 18.3722 140.408C18.6594 140.226 18.9965 140.137 19.3366 140.154H21.8805C22.0645 140.127 22.2523 140.143 22.429 140.201C22.6057 140.259 22.7664 140.358 22.8984 140.489C23.0305 140.62 23.1302 140.78 23.1897 140.956C23.2493 141.132 23.267 141.32 23.2415 141.504V160.994C23.267 161.178 23.2493 161.365 23.1897 161.542C23.1302 161.718 23.0305 161.878 22.8984 162.009C22.7664 162.14 22.6057 162.238 22.429 162.296C22.2523 162.354 22.0645 162.371 21.8805 162.344H18.8841C18.7 162.371 18.512 162.355 18.3352 162.297C18.1583 162.239 17.9974 162.14 17.8652 162.009C17.7329 161.878 17.633 161.718 17.5733 161.542C17.5137 161.366 17.4958 161.178 17.5213 160.994V153.258L14.1015 161.294C13.978 161.615 13.7565 161.889 13.4686 162.078C13.1807 162.266 12.8408 162.359 12.497 162.344H11.2869C10.9431 162.359 10.6032 162.266 10.3152 162.078C10.0272 161.89 9.80579 161.615 9.68241 161.294L6.29356 153.289V160.994C6.31902 161.178 6.30118 161.366 6.24149 161.542C6.18181 161.718 6.08192 161.878 5.94968 162.009C5.81745 162.14 5.65651 162.239 5.47965 162.297C5.30279 162.355 5.11485 162.371 4.9307 162.344H1.93436C1.75031 162.371 1.56247 162.355 1.38572 162.297C1.20897 162.239 1.04813 162.14 0.916054 162.009C0.783975 161.878 0.684285 161.718 0.624794 161.542C0.565302 161.365 0.54767 161.178 0.573341 160.994V141.504Z" fill="url(#paint5_linear_20_99)"/>
<path d="M33.5135 153.857V156.677H42.1393C42.3233 156.65 42.5111 156.666 42.6878 156.724C42.8645 156.782 43.0252 156.881 43.1572 157.012C43.2892 157.143 43.389 157.302 43.4485 157.479C43.5081 157.655 43.5258 157.842 43.5003 158.027V160.994C43.5258 161.178 43.5081 161.365 43.4485 161.542C43.389 161.718 43.2892 161.878 43.1572 162.009C43.0252 162.14 42.8645 162.238 42.6878 162.296C42.5111 162.354 42.3233 162.371 42.1393 162.344H29.1544C28.9703 162.371 28.7825 162.355 28.6058 162.297C28.429 162.239 28.2682 162.14 28.1361 162.009C28.0041 161.878 27.9043 161.718 27.8448 161.542C27.7853 161.366 27.7677 161.178 27.7934 160.994V141.504C27.7677 141.32 27.7853 141.132 27.8448 140.956C27.9043 140.78 28.0041 140.62 28.1361 140.489C28.2682 140.358 28.429 140.259 28.6058 140.201C28.7825 140.143 28.9703 140.127 29.1544 140.154H42.1393C42.3233 140.127 42.5112 140.143 42.6878 140.201C42.8645 140.259 43.0252 140.358 43.1573 140.489C43.2893 140.62 43.389 140.78 43.4486 140.956C43.5081 141.132 43.5259 141.32 43.5003 141.504V144.473C43.5258 144.657 43.5081 144.844 43.4485 145.021C43.3889 145.197 43.2891 145.356 43.157 145.487C43.025 145.618 42.8642 145.716 42.6876 145.774C42.511 145.832 42.3232 145.848 42.1393 145.821H33.5136V148.61H39.868C40.0521 148.583 40.24 148.599 40.4169 148.657C40.5938 148.715 40.7547 148.813 40.8869 148.944C41.0192 149.075 41.1191 149.235 41.1787 149.411C41.2384 149.588 41.2563 149.776 41.2308 149.96V152.509C41.2561 152.693 41.2381 152.881 41.1783 153.057C41.1185 153.233 41.0185 153.393 40.8863 153.524C40.7541 153.655 40.5933 153.753 40.4165 153.811C40.2398 153.869 40.052 153.885 39.868 153.857L33.5135 153.857Z" fill="url(#paint6_linear_20_99)"/>
<path d="M54.4955 156.677H62.5162C62.7002 156.649 62.888 156.666 63.0648 156.724C63.2415 156.782 63.4023 156.88 63.5344 157.011C63.6665 157.142 63.7662 157.302 63.8257 157.479C63.8852 157.655 63.9028 157.842 63.8771 158.027V160.994C63.9028 161.178 63.8852 161.366 63.8257 161.542C63.7662 161.718 63.6665 161.878 63.5344 162.009C63.4023 162.14 63.2415 162.239 63.0648 162.297C62.888 162.355 62.7002 162.371 62.5162 162.344H50.1382C49.954 162.371 49.7661 162.355 49.5892 162.297C49.4124 162.239 49.2514 162.14 49.1192 162.009C48.9869 161.878 48.8871 161.718 48.8274 161.542C48.7677 161.366 48.7498 161.178 48.7753 160.994V141.504C48.7498 141.32 48.7677 141.132 48.8274 140.956C48.8871 140.779 48.9869 140.619 49.1192 140.488C49.2514 140.357 49.4124 140.259 49.5892 140.201C49.7661 140.143 49.954 140.127 50.1382 140.154H53.1345C53.3185 140.127 53.5063 140.143 53.683 140.201C53.8597 140.259 54.0204 140.358 54.1524 140.489C54.2845 140.62 54.3842 140.78 54.4438 140.956C54.5033 141.132 54.521 141.32 54.4955 141.504V156.677Z" fill="url(#paint7_linear_20_99)"/>
<path d="M77.8378 162.884C74.7219 162.884 71.7315 161.656 69.5156 159.465C68.4228 158.391 67.5549 157.11 66.9625 155.697C66.37 154.284 66.0649 152.767 66.0649 151.234C66.0649 149.702 66.37 148.185 66.9625 146.772C67.5549 145.359 68.4228 144.078 69.5156 143.004C71.7321 140.813 74.7226 139.585 77.8387 139.585C80.9549 139.585 83.9454 140.813 86.1619 143.004C87.2547 144.078 88.1226 145.359 88.715 146.772C89.3075 148.185 89.6126 149.702 89.6126 151.234C89.6126 152.767 89.3075 154.284 88.715 155.697C88.1226 157.11 87.2547 158.391 86.1619 159.465C83.9419 161.651 80.9531 162.878 77.8378 162.884ZM77.8378 145.252C76.2379 145.256 74.7043 145.892 73.5714 147.022C73.0061 147.571 72.5568 148.229 72.25 148.955C71.9432 149.681 71.7851 150.461 71.7851 151.25C71.7851 152.038 71.9432 152.818 72.25 153.544C72.5568 154.271 73.0061 154.928 73.5714 155.477C74.7121 156.592 76.2437 157.217 77.8387 157.217C79.4338 157.217 80.9655 156.592 82.1062 155.477C82.6626 154.923 83.104 154.264 83.4052 153.539C83.7064 152.813 83.8615 152.035 83.8615 151.25C83.8615 150.464 83.7064 149.686 83.4052 148.961C83.104 148.235 82.6626 147.576 82.1062 147.022C80.9723 145.892 79.4382 145.256 77.8378 145.252Z" fill="url(#paint8_linear_20_99)"/>
<path d="M94.6169 162.344C94.4327 162.371 94.2448 162.355 94.0679 162.297C93.891 162.239 93.7301 162.14 93.5979 162.009C93.4656 161.878 93.3658 161.718 93.3061 161.542C93.2464 161.366 93.2285 161.178 93.254 160.994V141.504C93.2285 141.32 93.2464 141.132 93.3061 140.956C93.3658 140.779 93.4656 140.619 93.5979 140.488C93.7301 140.357 93.891 140.259 94.0679 140.201C94.2448 140.143 94.4327 140.127 94.6169 140.154H97.2189C97.5472 140.147 97.872 140.222 98.1631 140.374C98.4541 140.526 98.7019 140.75 98.8833 141.023L105.876 151.069V141.504C105.85 141.32 105.868 141.132 105.927 140.956C105.987 140.78 106.087 140.62 106.219 140.489C106.351 140.358 106.511 140.259 106.688 140.201C106.865 140.143 107.053 140.127 107.237 140.154H110.233C110.417 140.127 110.605 140.143 110.782 140.201C110.959 140.259 111.12 140.357 111.252 140.488C111.384 140.619 111.484 140.779 111.544 140.956C111.603 141.132 111.621 141.32 111.596 141.504V160.994C111.621 161.178 111.603 161.366 111.544 161.542C111.484 161.718 111.384 161.878 111.252 162.009C111.12 162.14 110.959 162.239 110.782 162.297C110.605 162.355 110.417 162.371 110.233 162.344H107.631C107.303 162.351 106.978 162.275 106.687 162.123C106.396 161.971 106.148 161.748 105.966 161.474L98.9742 151.339V160.994C98.9997 161.178 98.982 161.365 98.9225 161.542C98.8629 161.718 98.7632 161.878 98.6311 162.009C98.4991 162.14 98.3384 162.238 98.1617 162.296C97.985 162.354 97.7972 162.371 97.6132 162.344L94.6169 162.344Z" fill="url(#paint9_linear_20_99)"/>
<defs>
<linearGradient id="paint0_linear_20_99" x1="0.85444" y1="121.739" x2="28.4383" y2="121.739" gradientUnits="userSpaceOnUse">
<stop stop-color="#3F2000"/>
<stop offset="0.9448" stop-color="#3F2000"/>
</linearGradient>
<linearGradient id="paint1_linear_20_99" x1="28.3734" y1="121.754" x2="49.0031" y2="121.754" gradientUnits="userSpaceOnUse">
<stop stop-color="#3F2000"/>
<stop offset="0.9448" stop-color="#3F2000"/>
</linearGradient>
<linearGradient id="paint2_linear_20_99" x1="49.0787" y1="121.754" x2="66.8444" y2="121.754" gradientUnits="userSpaceOnUse">
<stop stop-color="#3F2000"/>
<stop offset="0.9448" stop-color="#3F2000"/>
</linearGradient>
<linearGradient id="paint3_linear_20_99" x1="71.0601" y1="121.754" x2="86.7688" y2="121.754" gradientUnits="userSpaceOnUse">
<stop stop-color="#3F2000"/>
<stop offset="0.9448" stop-color="#3F2000"/>
</linearGradient>
<linearGradient id="paint4_linear_20_99" x1="91.7404" y1="121.754" x2="109.355" y2="121.754" gradientUnits="userSpaceOnUse">
<stop stop-color="#3F2000"/>
<stop offset="0.9448" stop-color="#3F2000"/>
</linearGradient>
<linearGradient id="paint5_linear_20_99" x1="0.573346" y1="151.249" x2="23.2415" y2="151.249" gradientUnits="userSpaceOnUse">
<stop stop-color="#3F2000"/>
<stop offset="0.9448" stop-color="#3F2000"/>
</linearGradient>
<linearGradient id="paint6_linear_20_99" x1="27.7933" y1="151.249" x2="43.5003" y2="151.249" gradientUnits="userSpaceOnUse">
<stop stop-color="#3F2000"/>
<stop offset="0.9448" stop-color="#3F2000"/>
</linearGradient>
<linearGradient id="paint7_linear_20_99" x1="48.7753" y1="151.249" x2="63.8771" y2="151.249" gradientUnits="userSpaceOnUse">
<stop stop-color="#3F2000"/>
<stop offset="0.9448" stop-color="#3F2000"/>
</linearGradient>
<linearGradient id="paint8_linear_20_99" x1="66.0649" y1="151.234" x2="89.6126" y2="151.234" gradientUnits="userSpaceOnUse">
<stop stop-color="#3F2000"/>
<stop offset="0.9448" stop-color="#3F2000"/>
</linearGradient>
<linearGradient id="paint9_linear_20_99" x1="93.254" y1="151.249" x2="111.596" y2="151.249" gradientUnits="userSpaceOnUse">
<stop stop-color="#3F2000"/>
<stop offset="0.9448" stop-color="#3F2000"/>
</linearGradient>
</defs>
</svg>
